<svg width="40" height="52" viewBox="0 0 40 52" fill="none" xmlns="http://www.w3.org/2000/svg" xmlns:xlink="http://www.w3.org/1999/xlink">
<path d="M20,1C8.954,1 0,9.954 0,21C0,32.046 8.954,41 20,41C31.046,41 40,32.046 40,21C40,9.954 31.046,1 20,1ZM13.624,19.301C14.595,18.66 15.914,18.767 16.768,19.621L18.941,21.794L23.819,16.917C23.941,16.795 24.072,16.688 24.211,16.596C25.181,15.956 26.5,16.062 27.354,16.917C28.33,17.893 28.33,19.476 27.354,20.452L20.709,27.098C19.733,28.074 18.149,28.074 17.173,27.098L13.232,23.157C13.11,23.035 13.003,22.903 12.912,22.764C12.271,21.794 12.378,20.475 13.232,19.621C13.354,19.499 13.486,19.392 13.624,19.301Z" clip-rule="evenodd" fill-rule="evenodd" fill="#ED552A"/>
<path d="M0,21C0,9.954 8.954,1 20,1C31.046,1 40,9.954 40,21C40,32.046 31.046,41 20,41C8.954,41 0,32.046 0,21ZM16.768,19.621C15.914,18.767 14.595,18.66 13.624,19.301C13.486,19.392 13.354,19.499 13.232,19.621C12.378,20.475 12.271,21.794 12.912,22.764C13.003,22.903 13.11,23.035 13.232,23.157L17.173,27.098C18.149,28.074 19.733,28.074 20.709,27.098L27.354,20.452C28.33,19.476 28.33,17.893 27.354,16.917C26.5,16.062 25.181,15.956 24.211,16.596C24.072,16.688 23.941,16.795 23.819,16.917L18.941,21.794L16.768,19.621Z" clip-rule="evenodd" fill-rule="evenodd" fill="#ED552A"/>
<path d="M7.5,48.5L7.5,39.711C11.075,42.104 15.375,43.5 20,43.5C24.625,43.5 28.925,42.104 32.5,39.711L32.5,48.5C32.5,49.298 32.118,50.049 31.473,50.52C30.827,50.99 29.996,51.124 29.235,50.88L20,47.911L10.765,50.88C10.004,51.124 9.173,50.99 8.527,50.52C7.882,50.049 7.5,49.298 7.5,48.5Z" fill="#ED552A"/>
</svg>
