<svg width="48" height="50" viewBox="0 0 48 50" fill="none" xmlns="http://www.w3.org/2000/svg" xmlns:xlink="http://www.w3.org/1999/xlink">
<path d="M41.234,6.763C36.874,2.4 31.073,-0.003 24.904,-0.003C18.735,-0.003 12.934,2.4 8.571,6.763C5.2,10.109 2.949,14.418 2.127,19.096C1.306,23.774 1.953,28.592 3.982,32.887L0.117,44.852C-0.02,45.273 -0.037,45.724 0.067,46.154C0.17,46.585 0.391,46.978 0.704,47.291C0.704,47.291 1.668,48.356 3.145,47.88L15.11,44.015C18.178,45.445 21.521,46.187 24.906,46.189C27.94,46.198 30.945,45.605 33.748,44.444C36.551,43.283 39.095,41.577 41.234,39.426C45.597,35.063 48,29.262 48,23.093C48,16.924 45.597,11.123 41.234,6.763Z" fill="#ED552A"/>
<path d="M28.968,14.377L33.153,14.377C33.791,14.377 34.403,14.63 34.854,15.081C35.305,15.532 35.558,16.144 35.558,16.782C35.558,17.42 35.305,18.032 34.854,18.483C34.403,18.934 33.791,19.187 33.153,19.187L28.968,19.187C28.331,19.187 27.719,18.934 27.268,18.483C26.817,18.032 26.563,17.42 26.563,16.782C26.563,16.144 26.817,15.532 27.268,15.081C27.719,14.63 28.331,14.377 28.968,14.377ZM16.943,14.377L21.128,14.377C21.766,14.377 22.377,14.63 22.828,15.081C23.279,15.532 23.533,16.144 23.533,16.782C23.533,17.42 23.279,18.032 22.828,18.483C22.377,18.934 21.766,19.187 21.128,19.187L16.943,19.187C16.305,19.187 15.693,18.934 15.242,18.483C14.791,18.032 14.538,17.42 14.538,16.782C14.538,16.144 14.791,15.532 15.242,15.081C15.693,14.63 16.305,14.377 16.943,14.377ZM38.146,25.979C36.732,32.247 31.263,36.624 24.846,36.624C18.429,36.624 12.96,32.247 11.546,25.979C11.424,25.365 11.548,24.727 11.889,24.202C12.231,23.677 12.764,23.306 13.375,23.167C13.986,23.029 14.627,23.135 15.161,23.462C15.695,23.789 16.081,24.312 16.236,24.919C17.152,28.978 20.692,31.812 24.844,31.812C28.995,31.812 32.535,28.976 33.451,24.919C33.619,24.325 34.008,23.818 34.538,23.502C35.069,23.187 35.7,23.087 36.302,23.222C36.904,23.358 37.431,23.72 37.774,24.233C38.117,24.746 38.25,25.371 38.146,25.979Z" fill="#FFFFFF"/>
</svg>
