<svg width="86" height="86" viewBox="0 0 86 86" fill="none" xmlns="http://www.w3.org/2000/svg" xmlns:xlink="http://www.w3.org/1999/xlink">
<path d="M85.998,42.411C85.998,18.664 66.747,-0.588 42.999,-0.588C19.252,-0.588 0,18.664 0,42.411C0,62.576 13.884,79.497 32.612,84.145L32.612,55.552L23.746,55.552L23.746,42.411L32.612,42.411L32.612,36.749C32.612,22.114 39.236,15.33 53.604,15.33C56.329,15.33 61.03,15.865 62.952,16.398L62.952,28.309C61.938,28.203 60.175,28.149 57.985,28.149C50.935,28.149 48.211,30.82 48.211,37.764L48.211,42.411L62.256,42.411L59.843,55.552L48.211,55.552L48.211,85.096C69.502,82.524 86,64.396 86,42.411L85.998,42.411Z" fill="#0866FF"/>
<path d="M59.841,55.55L62.254,42.409L48.209,42.409L48.209,37.762C48.209,30.818 50.933,28.147 57.983,28.147C60.173,28.147 61.936,28.2 62.95,28.307L62.95,16.396C61.027,15.861 56.327,15.328 53.602,15.328C39.234,15.328 32.61,22.112 32.61,36.747L32.61,42.409L23.744,42.409L23.744,55.55L32.61,55.55L32.61,84.142C35.937,84.968 39.416,85.408 42.997,85.408C44.76,85.408 46.499,85.3 48.207,85.093L48.207,55.55L59.839,55.55L59.841,55.55Z" fill="#FFFFFF"/>
</svg>
