<svg width="48" height="52" viewBox="0 0 48 52" fill="none" xmlns="http://www.w3.org/2000/svg" xmlns:xlink="http://www.w3.org/1999/xlink">
<path d="M35.403,33.628C41.476,30.234 46.12,27.648 46.517,27.446C47.787,26.759 49.097,24.941 46.517,23.527C45.683,23.082 41.198,20.577 35.403,17.345L27.426,25.507L35.403,33.628Z" fill="#FFD400"/>
<path d="M27.426,25.508L1.945,51.65C2.54,51.731 3.215,51.569 4.009,51.125C5.676,50.195 23.377,40.337 35.403,33.629L27.426,25.508Z" fill="#FF3333"/>
<path d="M27.426,25.505L35.404,17.344C35.404,17.344 5.795,0.899 4.009,-0.071C3.334,-0.475 2.58,-0.596 1.905,-0.475L27.426,25.505Z" fill="#48FF48"/>
<path d="M27.426,25.506L1.905,-0.475C0.873,-0.232 0,0.697 0,2.596C0,5.627 0,46.032 0,48.577C0,50.315 0.675,51.567 1.945,51.689L27.426,25.506Z" fill="#3BCCFF"/>
</svg>
