<svg width="24" height="36" viewBox="0 0 24 36" fill="none" xmlns="http://www.w3.org/2000/svg" xmlns:xlink="http://www.w3.org/1999/xlink">
<path d="M19.714,0L4.286,0C1.919,0 0,1.919 0,4.286L0,31.714C0,34.081 1.919,36 4.286,36L19.714,36C22.081,36 24,34.081 24,31.714L24,4.286C24,1.919 22.081,0 19.714,0Z" fill="#ED552A"/>
<path d="M19.714,0L4.286,0C3.149,0 2.059,0.452 1.255,1.255C0.452,2.059 0,3.149 0,4.286L0,25.714C0,26.624 0.361,27.496 1.004,28.139C1.647,28.782 2.519,29.143 3.429,29.143L20.571,29.143C21.481,29.143 22.353,28.782 22.996,28.139C23.639,27.496 24,26.624 24,25.714L24,4.286C24,3.149 23.548,2.059 22.745,1.255C21.941,0.452 20.851,0 19.714,0ZM13.714,33.429L10.286,33.429C10.058,33.429 9.84,33.338 9.68,33.178C9.519,33.017 9.429,32.799 9.429,32.571C9.429,32.344 9.519,32.126 9.68,31.965C9.84,31.805 10.058,31.714 10.286,31.714L13.714,31.714C13.942,31.714 14.16,31.805 14.32,31.965C14.481,32.126 14.571,32.344 14.571,32.571C14.571,32.799 14.481,33.017 14.32,33.178C14.16,33.338 13.942,33.429 13.714,33.429Z" fill="#FFFFFF"/>
<path d="M6.453,22.071C6.225,22.071 6.007,21.981 5.847,21.82C5.686,21.66 5.596,21.442 5.596,21.214L5.596,17.786C5.596,17.558 5.686,17.34 5.847,17.18C6.007,17.019 6.225,16.929 6.453,16.929C6.68,16.929 6.898,17.019 7.059,17.18C7.22,17.34 7.31,17.558 7.31,17.786L7.31,21.214C7.31,21.442 7.22,21.66 7.059,21.82C6.898,21.981 6.68,22.071 6.453,22.071ZM17.857,16.2C17.617,15.892 17.31,15.643 16.959,15.472C16.608,15.301 16.223,15.212 15.832,15.213L14.816,15.213L15.26,13.292C15.409,12.646 15.308,11.968 14.979,11.394C14.65,10.819 14.116,10.39 13.483,10.192C12.851,9.994 12.168,10.041 11.569,10.325C10.971,10.61 10.502,11.109 10.256,11.724L8.129,17.038C8.089,17.14 8.069,17.247 8.068,17.356L8.068,20.785C8.068,21.24 8.249,21.676 8.57,21.997C8.892,22.319 9.328,22.499 9.783,22.499L15.3,22.499C15.874,22.499 16.432,22.307 16.884,21.953C17.336,21.6 17.657,21.105 17.795,20.548L18.328,18.405C18.423,18.026 18.43,17.63 18.348,17.248C18.267,16.866 18.099,16.507 17.857,16.2Z" fill="#ED552A"/>
<path d="M12,5.143L7.715,5.143C7.487,5.143 7.269,5.053 7.108,4.892C6.948,4.731 6.857,4.513 6.857,4.286C6.857,4.059 6.948,3.841 7.108,3.68C7.269,3.519 7.487,3.429 7.715,3.429L12,3.429C12.228,3.429 12.446,3.519 12.606,3.68C12.767,3.841 12.857,4.059 12.857,4.286C12.857,4.513 12.767,4.731 12.606,4.892C12.446,5.053 12.228,5.143 12,5.143ZM16.286,5.143L14.572,5.143C14.344,5.143 14.126,5.053 13.966,4.892C13.805,4.731 13.715,4.513 13.715,4.286C13.715,4.059 13.805,3.841 13.966,3.68C14.126,3.519 14.344,3.429 14.572,3.429L16.286,3.429C16.513,3.429 16.731,3.519 16.892,3.68C17.053,3.841 17.143,4.059 17.143,4.286C17.143,4.513 17.053,4.731 16.892,4.892C16.731,5.053 16.513,5.143 16.286,5.143Z" fill="#ED552A"/>
<path d="M19.714,36L4.286,36C3.149,35.999 2.06,35.547 1.257,34.743C0.453,33.94 0.001,32.851 0,31.714L0,4.286C0.001,3.149 0.453,2.06 1.257,1.257C2.06,0.453 3.149,0.001 4.286,0L19.714,0C20.851,0.001 21.94,0.453 22.743,1.257C23.547,2.06 23.999,3.149 24,4.286L24,31.714C23.999,32.851 23.547,33.94 22.743,34.743C21.94,35.547 20.851,35.999 19.714,36ZM4.286,1.714C3.604,1.714 2.95,1.985 2.467,2.467C1.985,2.95 1.714,3.604 1.714,4.286L1.714,31.714C1.714,32.396 1.985,33.05 2.467,33.533C2.95,34.015 3.604,34.286 4.286,34.286L19.714,34.286C20.396,34.286 21.05,34.015 21.533,33.533C22.015,33.05 22.286,32.396 22.286,31.714L22.286,4.286C22.286,3.604 22.015,2.95 21.533,2.467C21.05,1.985 20.396,1.714 19.714,1.714L4.286,1.714Z" fill="#ED552A"/>
<path d="M19.714,30L4.286,30C3.149,29.999 2.06,29.547 1.257,28.743C0.453,27.94 0.001,26.851 0,25.714L0,4.286C0.001,3.149 0.453,2.06 1.257,1.257C2.06,0.453 3.149,0.001 4.286,0L19.714,0C20.851,0.001 21.94,0.453 22.743,1.257C23.547,2.06 23.999,3.149 24,4.286L24,25.714C23.999,26.851 23.547,27.94 22.743,28.743C21.94,29.547 20.851,29.999 19.714,30ZM4.286,1.714C3.604,1.714 2.95,1.985 2.467,2.467C1.985,2.95 1.714,3.604 1.714,4.286L1.714,25.714C1.714,26.396 1.985,27.05 2.467,27.533C2.95,28.015 3.604,28.286 4.286,28.286L19.714,28.286C20.396,28.286 21.05,28.015 21.533,27.533C22.015,27.05 22.286,26.396 22.286,25.714L22.286,4.286C22.286,3.604 22.015,2.95 21.533,2.467C21.05,1.985 20.396,1.714 19.714,1.714L4.286,1.714Z" fill="#ED552A"/>
<path d="M6.453,22.072C6.225,22.072 6.007,21.981 5.847,21.821C5.686,21.66 5.596,21.442 5.596,21.214L5.596,17.786C5.596,17.559 5.686,17.341 5.847,17.18C6.007,17.019 6.225,16.929 6.453,16.929C6.68,16.929 6.898,17.019 7.059,17.18C7.22,17.341 7.31,17.559 7.31,17.786L7.31,21.214C7.31,21.442 7.22,21.66 7.059,21.821C6.898,21.981 6.68,22.072 6.453,22.072ZM15.3,22.5L9.783,22.5C9.328,22.5 8.892,22.32 8.57,21.998C8.249,21.677 8.068,21.241 8.068,20.786L8.068,17.357C8.069,17.248 8.089,17.14 8.129,17.038L10.256,11.724C10.502,11.109 10.971,10.609 11.57,10.325C12.168,10.04 12.852,9.992 13.484,10.191C14.117,10.389 14.651,10.819 14.98,11.394C15.309,11.969 15.409,12.647 15.26,13.293L14.816,15.214L15.832,15.214C16.223,15.215 16.608,15.304 16.959,15.475C17.31,15.646 17.618,15.895 17.858,16.202C18.099,16.51 18.266,16.868 18.347,17.25C18.428,17.632 18.422,18.028 18.328,18.406L17.795,20.549C17.657,21.106 17.336,21.601 16.884,21.955C16.432,22.308 15.874,22.5 15.3,22.5ZM9.783,17.522L9.783,20.786L15.3,20.786C15.491,20.786 15.677,20.722 15.827,20.604C15.978,20.486 16.084,20.322 16.131,20.136L16.663,17.993C16.694,17.867 16.697,17.735 16.669,17.608C16.642,17.481 16.587,17.362 16.507,17.259C16.427,17.157 16.324,17.074 16.208,17.017C16.091,16.96 15.962,16.93 15.832,16.93L13.738,16.93C13.609,16.93 13.482,16.9 13.366,16.844C13.25,16.788 13.148,16.707 13.068,16.606C12.988,16.505 12.931,16.387 12.903,16.262C12.874,16.136 12.875,16.005 12.904,15.88L13.589,12.909C13.621,12.775 13.623,12.636 13.593,12.501C13.563,12.367 13.503,12.241 13.418,12.133C13.313,12.016 13.182,11.927 13.034,11.873C12.887,11.82 12.728,11.803 12.573,11.826C12.418,11.849 12.271,11.91 12.145,12.003C12.019,12.097 11.918,12.22 11.852,12.362L9.783,17.522Z" fill="#ED552A"/>
</svg>
