<svg width="40" height="42" viewBox="0 0 40 42" 
fill="none" xmlns="http://www.w3.org/2000/svg" xmlns:xlink="http://www.w3.org/1999/xlink">
<path d="M39.511,38.213L32.636,31.492L32.636,31.492L32.475,31.247C32.176,30.948 31.766,30.78 31.338,30.78C30.911,30.78 30.501,30.948 30.201,31.247L30.201,31.247C24.359,36.607 15.356,36.898 9.164,31.927C2.972,26.957 1.511,18.267 5.751,11.62C9.991,4.974 18.616,2.434 25.906,5.684C33.195,8.935 36.888,16.968 34.534,24.455C34.365,24.996 34.503,25.584 34.897,25.998C35.292,26.412 35.882,26.589 36.446,26.462C37.01,26.335 37.462,25.924 37.631,25.383L37.631,25.383C40.445,16.497 36.195,6.935 27.632,2.882C19.069,-1.171 8.762,1.502 3.378,9.171C-2.005,16.84 -0.85,27.204 6.098,33.559C13.045,39.914 23.7,40.352 31.168,34.59L37.255,40.541C37.884,41.153 38.9,41.153 39.529,40.541C40.157,39.92 40.157,38.921 39.529,38.301L39.529,38.301L39.511,38.213Z" fill="#3C3A36"/>
</svg>
