<svg width="52" height="52" viewBox="0 0 52 52" fill="none" xmlns="http://www.w3.org/2000/svg" xmlns:xlink="http://www.w3.org/1999/xlink">
<path d="M52,26.078C52,11.717 40.361,0.078 26,0.078C11.639,0.078 0,11.717 0,26.078C0,39.058 9.506,49.813 21.938,51.763L21.938,33.594L15.336,33.594L15.336,26.078L21.938,26.078L21.938,20.35C21.938,13.835 25.817,10.234 31.759,10.234C34.602,10.234 37.578,10.742 37.578,10.742L37.578,17.141L34.298,17.141C31.068,17.141 30.063,19.147 30.063,21.203L30.063,26.078L37.273,26.078L36.121,33.594L30.063,33.594L30.063,51.763C42.494,49.813 52,39.058 52,26.078Z" fill="#1877F2"/>
</svg>
