<svg width="40" height="28" viewBox="0 0 40 28" fill="none" xmlns="http://www.w3.org/2000/svg" xmlns:xlink="http://www.w3.org/1999/xlink">
<path d="M39.489,0.597C39.651,0.758 39.78,0.95 39.867,1.161C39.955,1.373 40,1.599 40,1.828C40,2.057 39.955,2.283 39.867,2.494C39.78,2.706 39.651,2.898 39.489,3.059L15.145,27.404C14.983,27.566 14.791,27.694 14.58,27.782C14.369,27.869 14.142,27.915 13.913,27.915C13.685,27.915 13.458,27.869 13.247,27.782C13.036,27.694 12.844,27.566 12.682,27.404L0.51,15.231C0.183,14.905 0,14.462 0,14C0,13.538 0.183,13.096 0.51,12.769C0.836,12.443 1.279,12.259 1.741,12.259C2.203,12.259 2.646,12.443 2.972,12.769L13.913,23.714L37.027,0.597C37.188,0.435 37.38,0.306 37.592,0.219C37.803,0.131 38.029,0.086 38.258,0.086C38.487,0.086 38.713,0.131 38.924,0.219C39.136,0.306 39.328,0.435 39.489,0.597L39.489,0.597Z" clip-rule="evenodd" fill-rule="evenodd" fill="#11BD06" stroke="#11BD06" stroke-width="0.2" stroke-miterlimit="3.999327"/>
</svg>
