<svg width="20" height="12" viewBox="0 0 20 12" fill="none" xmlns="http://www.w3.org/2000/svg" xmlns:xlink="http://www.w3.org/1999/xlink">
<path d="M2.884,1.116C2.396,0.628 1.604,0.628 1.116,1.116C0.628,1.604 0.628,2.396 1.116,2.884L2.884,1.116ZM10,10L9.116,10.884C9.604,11.372 10.396,11.372 10.884,10.884L10,10ZM18.884,2.884C19.372,2.396 19.372,1.604 18.884,1.116C18.396,0.628 17.604,0.628 17.116,1.116L18.884,2.884ZM1.116,2.884L9.116,10.884L10.884,9.116L2.884,1.116L1.116,2.884ZM10.884,10.884L18.884,2.884L17.116,1.116L9.116,9.116L10.884,10.884Z" transform="rotate(0 10 6)" fill="#78746D"/>
</svg>
