<svg width="32" height="32" viewBox="0 0 32 32" fill="none" xmlns="http://www.w3.org/2000/svg" xmlns:xlink="http://www.w3.org/1999/xlink">
<path d="M16.112,19.693C12.242,23.564 8.576,27.266 4.857,30.914C4.353,31.408 3.615,31.803 2.924,31.939C1.781,32.164 0.744,31.48 0.26,30.458C-0.204,29.478 -0.046,28.311 0.734,27.493C1.759,26.419 2.823,25.383 3.874,24.334C6.627,21.584 9.381,18.834 12.418,15.801C12.097,15.633 11.765,15.546 11.553,15.336C8.014,11.822 4.497,8.287 0.962,4.77C0.132,3.945 -0.209,2.995 0.14,1.872C0.744,-0.066 3.119,-0.628 4.619,0.83C6.407,2.566 8.154,4.347 9.914,6.112C11.913,8.114 13.906,10.119 15.972,12.195C16.218,11.965 16.436,11.768 16.645,11.56C20.171,8.035 23.703,4.516 27.217,0.978C28.042,0.146 28.987,-0.204 30.11,0.129C32.014,0.692 32.633,3.051 31.253,4.535C30.261,5.601 29.204,6.604 28.173,7.635C25.618,10.19 23.063,12.745 20.508,15.302C20.292,15.517 20.087,15.739 19.842,15.998C20.074,16.245 20.274,16.47 20.486,16.684C24.029,20.231 27.587,23.766 31.117,27.328C32.662,28.886 32.078,31.317 30.048,31.885C28.946,32.193 28.03,31.843 27.23,31.04C23.734,27.525 20.22,24.025 16.72,20.513C16.51,20.298 16.355,20.022 16.112,19.693Z" fill="#ED3535"/>
</svg>
