<svg width="348" height="348" viewBox="0 0 348 348" fill="none" xmlns="http://www.w3.org/2000/svg" xmlns:xlink="http://www.w3.org/1999/xlink">
<path d="M11,-0.602L-1,-0.602L-1,11.398L11,11.398L11,-0.602Z" fill="#000000"/>
<path d="M23,-0.602L11,-0.602L11,11.398L23,11.398L23,-0.602Z" fill="#000000"/>
<path d="M35,-0.602L23,-0.602L23,11.398L35,11.398L35,-0.602Z" fill="#000000"/>
<path d="M47,-0.602L35,-0.602L35,11.398L47,11.398L47,-0.602Z" fill="#000000"/>
<path d="M59,-0.602L47,-0.602L47,11.398L59,11.398L59,-0.602Z" fill="#000000"/>
<path d="M71,-0.602L59,-0.602L59,11.398L71,11.398L71,-0.602Z" fill="#000000"/>
<path d="M83,-0.602L71,-0.602L71,11.398L83,11.398L83,-0.602Z" fill="#000000"/>
<path d="M107,-0.602L95,-0.602L95,11.398L107,11.398L107,-0.602Z" fill="#000000"/>
<path d="M131,-0.602L119,-0.602L119,11.398L131,11.398L131,-0.602Z" fill="#000000"/>
<path d="M191,-0.602L179,-0.602L179,11.398L191,11.398L191,-0.602Z" fill="#000000"/>
<path d="M203,-0.602L191,-0.602L191,11.398L203,11.398L203,-0.602Z" fill="#000000"/>
<path d="M227,-0.602L215,-0.602L215,11.398L227,11.398L227,-0.602Z" fill="#000000"/>
<path d="M251,-0.602L239,-0.602L239,11.398L251,11.398L251,-0.602Z" fill="#000000"/>
<path d="M275,-0.602L263,-0.602L263,11.398L275,11.398L275,-0.602Z" fill="#000000"/>
<path d="M287,-0.602L275,-0.602L275,11.398L287,11.398L287,-0.602Z" fill="#000000"/>
<path d="M299,-0.602L287,-0.602L287,11.398L299,11.398L299,-0.602Z" fill="#000000"/>
<path d="M311,-0.602L299,-0.602L299,11.398L311,11.398L311,-0.602Z" fill="#000000"/>
<path d="M323,-0.602L311,-0.602L311,11.398L323,11.398L323,-0.602Z" fill="#000000"/>
<path d="M335,-0.602L323,-0.602L323,11.398L335,11.398L335,-0.602Z" fill="#000000"/>
<path d="M347,-0.602L335,-0.602L335,11.398L347,11.398L347,-0.602Z" fill="#000000"/>
<path d="M11,11.398L-1,11.398L-1,23.398L11,23.398L11,11.398Z" fill="#000000"/>
<path d="M83,11.398L71,11.398L71,23.398L83,23.398L83,11.398Z" fill="#000000"/>
<path d="M119,11.398L107,11.398L107,23.398L119,23.398L119,11.398Z" fill="#000000"/>
<path d="M131,11.398L119,11.398L119,23.398L131,23.398L131,11.398Z" fill="#000000"/>
<path d="M143,11.398L131,11.398L131,23.398L143,23.398L143,11.398Z" fill="#000000"/>
<path d="M155,11.398L143,11.398L143,23.398L155,23.398L155,11.398Z" fill="#000000"/>
<path d="M179,11.398L167,11.398L167,23.398L179,23.398L179,11.398Z" fill="#000000"/>
<path d="M191,11.398L179,11.398L179,23.398L191,23.398L191,11.398Z" fill="#000000"/>
<path d="M275,11.398L263,11.398L263,23.398L275,23.398L275,11.398Z" fill="#000000"/>
<path d="M347,11.398L335,11.398L335,23.398L347,23.398L347,11.398Z" fill="#000000"/>
<path d="M11,23.398L-1,23.398L-1,35.398L11,35.398L11,23.398Z" fill="#000000"/>
<path d="M35,23.398L23,23.398L23,35.398L35,35.398L35,23.398Z" fill="#000000"/>
<path d="M47,23.398L35,23.398L35,35.398L47,35.398L47,23.398Z" fill="#000000"/>
<path d="M59,23.398L47,23.398L47,35.398L59,35.398L59,23.398Z" fill="#000000"/>
<path d="M83,23.398L71,23.398L71,35.398L83,35.398L83,23.398Z" fill="#000000"/>
<path d="M131,23.398L119,23.398L119,35.398L131,35.398L131,23.398Z" fill="#000000"/>
<path d="M143,23.398L131,23.398L131,35.398L143,35.398L143,23.398Z" fill="#000000"/>
<path d="M155,23.398L143,23.398L143,35.398L155,35.398L155,23.398Z" fill="#000000"/>
<path d="M167,23.398L155,23.398L155,35.398L167,35.398L167,23.398Z" fill="#000000"/>
<path d="M191,23.398L179,23.398L179,35.398L191,35.398L191,23.398Z" fill="#000000"/>
<path d="M203,23.398L191,23.398L191,35.398L203,35.398L203,23.398Z" fill="#000000"/>
<path d="M239,23.398L227,23.398L227,35.398L239,35.398L239,23.398Z" fill="#000000"/>
<path d="M251,23.398L239,23.398L239,35.398L251,35.398L251,23.398Z" fill="#000000"/>
<path d="M275,23.398L263,23.398L263,35.398L275,35.398L275,23.398Z" fill="#000000"/>
<path d="M299,23.398L287,23.398L287,35.398L299,35.398L299,23.398Z" fill="#000000"/>
<path d="M311,23.398L299,23.398L299,35.398L311,35.398L311,23.398Z" fill="#000000"/>
<path d="M323,23.398L311,23.398L311,35.398L323,35.398L323,23.398Z" fill="#000000"/>
<path d="M347,23.398L335,23.398L335,35.398L347,35.398L347,23.398Z" fill="#000000"/>
<path d="M11,35.398L-1,35.398L-1,47.398L11,47.398L11,35.398Z" fill="#000000"/>
<path d="M35,35.398L23,35.398L23,47.398L35,47.398L35,35.398Z" fill="#000000"/>
<path d="M47,35.398L35,35.398L35,47.398L47,47.398L47,35.398Z" fill="#000000"/>
<path d="M59,35.398L47,35.398L47,47.398L59,47.398L59,35.398Z" fill="#000000"/>
<path d="M83,35.398L71,35.398L71,47.398L83,47.398L83,35.398Z" fill="#000000"/>
<path d="M107,35.398L95,35.398L95,47.398L107,47.398L107,35.398Z" fill="#000000"/>
<path d="M119,35.398L107,35.398L107,47.398L119,47.398L119,35.398Z" fill="#000000"/>
<path d="M131,35.398L119,35.398L119,47.398L131,47.398L131,35.398Z" fill="#000000"/>
<path d="M143,35.398L131,35.398L131,47.398L143,47.398L143,35.398Z" fill="#000000"/>
<path d="M167,35.398L155,35.398L155,47.398L167,47.398L167,35.398Z" fill="#000000"/>
<path d="M203,35.398L191,35.398L191,47.398L203,47.398L203,35.398Z" fill="#000000"/>
<path d="M239,35.398L227,35.398L227,47.398L239,47.398L239,35.398Z" fill="#000000"/>
<path d="M275,35.398L263,35.398L263,47.398L275,47.398L275,35.398Z" fill="#000000"/>
<path d="M299,35.398L287,35.398L287,47.398L299,47.398L299,35.398Z" fill="#000000"/>
<path d="M311,35.398L299,35.398L299,47.398L311,47.398L311,35.398Z" fill="#000000"/>
<path d="M323,35.398L311,35.398L311,47.398L323,47.398L323,35.398Z" fill="#000000"/>
<path d="M347,35.398L335,35.398L335,47.398L347,47.398L347,35.398Z" fill="#000000"/>
<path d="M11,47.398L-1,47.398L-1,59.398L11,59.398L11,47.398Z" fill="#000000"/>
<path d="M35,47.398L23,47.398L23,59.398L35,59.398L35,47.398Z" fill="#000000"/>
<path d="M47,47.398L35,47.398L35,59.398L47,59.398L47,47.398Z" fill="#000000"/>
<path d="M59,47.398L47,47.398L47,59.398L59,59.398L59,47.398Z" fill="#000000"/>
<path d="M83,47.398L71,47.398L71,59.398L83,59.398L83,47.398Z" fill="#000000"/>
<path d="M167,47.398L155,47.398L155,59.398L167,59.398L167,47.398Z" fill="#000000"/>
<path d="M179,47.398L167,47.398L167,59.398L179,59.398L179,47.398Z" fill="#000000"/>
<path d="M191,47.398L179,47.398L179,59.398L191,59.398L191,47.398Z" fill="#000000"/>
<path d="M215,47.398L203,47.398L203,59.398L215,59.398L215,47.398Z" fill="#000000"/>
<path d="M275,47.398L263,47.398L263,59.398L275,59.398L275,47.398Z" fill="#000000"/>
<path d="M299,47.398L287,47.398L287,59.398L299,59.398L299,47.398Z" fill="#000000"/>
<path d="M311,47.398L299,47.398L299,59.398L311,59.398L311,47.398Z" fill="#000000"/>
<path d="M323,47.398L311,47.398L311,59.398L323,59.398L323,47.398Z" fill="#000000"/>
<path d="M347,47.398L335,47.398L335,59.398L347,59.398L347,47.398Z" fill="#000000"/>
<path d="M11,59.398L-1,59.398L-1,71.398L11,71.398L11,59.398Z" fill="#000000"/>
<path d="M83,59.398L71,59.398L71,71.398L83,71.398L83,59.398Z" fill="#000000"/>
<path d="M107,59.398L95,59.398L95,71.398L107,71.398L107,59.398Z" fill="#000000"/>
<path d="M119,59.398L107,59.398L107,71.398L119,71.398L119,59.398Z" fill="#000000"/>
<path d="M131,59.398L119,59.398L119,71.398L131,71.398L131,59.398Z" fill="#000000"/>
<path d="M143,59.398L131,59.398L131,71.398L143,71.398L143,59.398Z" fill="#000000"/>
<path d="M155,59.398L143,59.398L143,71.398L155,71.398L155,59.398Z" fill="#000000"/>
<path d="M167,59.398L155,59.398L155,71.398L167,71.398L167,59.398Z" fill="#000000"/>
<path d="M191,59.398L179,59.398L179,71.398L191,71.398L191,59.398Z" fill="#000000"/>
<path d="M203,59.398L191,59.398L191,71.398L203,71.398L203,59.398Z" fill="#000000"/>
<path d="M275,59.398L263,59.398L263,71.398L275,71.398L275,59.398Z" fill="#000000"/>
<path d="M347,59.398L335,59.398L335,71.398L347,71.398L347,59.398Z" fill="#000000"/>
<path d="M11,71.398L-1,71.398L-1,83.398L11,83.398L11,71.398Z" fill="#000000"/>
<path d="M23,71.398L11,71.398L11,83.398L23,83.398L23,71.398Z" fill="#000000"/>
<path d="M35,71.398L23,71.398L23,83.398L35,83.398L35,71.398Z" fill="#000000"/>
<path d="M47,71.398L35,71.398L35,83.398L47,83.398L47,71.398Z" fill="#000000"/>
<path d="M59,71.398L47,71.398L47,83.398L59,83.398L59,71.398Z" fill="#000000"/>
<path d="M71,71.398L59,71.398L59,83.398L71,83.398L71,71.398Z" fill="#000000"/>
<path d="M83,71.398L71,71.398L71,83.398L83,83.398L83,71.398Z" fill="#000000"/>
<path d="M107,71.398L95,71.398L95,83.398L107,83.398L107,71.398Z" fill="#000000"/>
<path d="M131,71.398L119,71.398L119,83.398L131,83.398L131,71.398Z" fill="#000000"/>
<path d="M155,71.398L143,71.398L143,83.398L155,83.398L155,71.398Z" fill="#000000"/>
<path d="M179,71.398L167,71.398L167,83.398L179,83.398L179,71.398Z" fill="#000000"/>
<path d="M203,71.398L191,71.398L191,83.398L203,83.398L203,71.398Z" fill="#000000"/>
<path d="M227,71.398L215,71.398L215,83.398L227,83.398L227,71.398Z" fill="#000000"/>
<path d="M251,71.398L239,71.398L239,83.398L251,83.398L251,71.398Z" fill="#000000"/>
<path d="M275,71.398L263,71.398L263,83.398L275,83.398L275,71.398Z" fill="#000000"/>
<path d="M287,71.398L275,71.398L275,83.398L287,83.398L287,71.398Z" fill="#000000"/>
<path d="M299,71.398L287,71.398L287,83.398L299,83.398L299,71.398Z" fill="#000000"/>
<path d="M311,71.398L299,71.398L299,83.398L311,83.398L311,71.398Z" fill="#000000"/>
<path d="M323,71.398L311,71.398L311,83.398L323,83.398L323,71.398Z" fill="#000000"/>
<path d="M335,71.398L323,71.398L323,83.398L335,83.398L335,71.398Z" fill="#000000"/>
<path d="M347,71.398L335,71.398L335,83.398L347,83.398L347,71.398Z" fill="#000000"/>
<path d="M119,83.398L107,83.398L107,95.398L119,95.398L119,83.398Z" fill="#000000"/>
<path d="M179,83.398L167,83.398L167,95.398L179,95.398L179,83.398Z" fill="#000000"/>
<path d="M215,83.398L203,83.398L203,95.398L215,95.398L215,83.398Z" fill="#000000"/>
<path d="M227,83.398L215,83.398L215,95.398L227,95.398L227,83.398Z" fill="#000000"/>
<path d="M239,83.398L227,83.398L227,95.398L239,95.398L239,83.398Z" fill="#000000"/>
<path d="M251,83.398L239,83.398L239,95.398L251,95.398L251,83.398Z" fill="#000000"/>
<path d="M71,95.398L59,95.398L59,107.398L71,107.398L71,95.398Z" fill="#000000"/>
<path d="M83,95.398L71,95.398L71,107.398L83,107.398L83,95.398Z" fill="#000000"/>
<path d="M107,95.398L95,95.398L95,107.398L107,107.398L107,95.398Z" fill="#000000"/>
<path d="M119,95.398L107,95.398L107,107.398L119,107.398L119,95.398Z" fill="#000000"/>
<path d="M143,95.398L131,95.398L131,107.398L143,107.398L143,95.398Z" fill="#000000"/>
<path d="M155,95.398L143,95.398L143,107.398L155,107.398L155,95.398Z" fill="#000000"/>
<path d="M179,95.398L167,95.398L167,107.398L179,107.398L179,95.398Z" fill="#000000"/>
<path d="M191,95.398L179,95.398L179,107.398L191,107.398L191,95.398Z" fill="#000000"/>
<path d="M203,95.398L191,95.398L191,107.398L203,107.398L203,95.398Z" fill="#000000"/>
<path d="M215,95.398L203,95.398L203,107.398L215,107.398L215,95.398Z" fill="#000000"/>
<path d="M263,95.398L251,95.398L251,107.398L263,107.398L263,95.398Z" fill="#000000"/>
<path d="M287,95.398L275,95.398L275,107.398L287,107.398L287,95.398Z" fill="#000000"/>
<path d="M311,95.398L299,95.398L299,107.398L311,107.398L311,95.398Z" fill="#000000"/>
<path d="M347,95.398L335,95.398L335,107.398L347,107.398L347,95.398Z" fill="#000000"/>
<path d="M11,107.398L-1,107.398L-1,119.398L11,119.398L11,107.398Z" fill="#000000"/>
<path d="M47,107.398L35,107.398L35,119.398L47,119.398L47,107.398Z" fill="#000000"/>
<path d="M95,107.398L83,107.398L83,119.398L95,119.398L95,107.398Z" fill="#000000"/>
<path d="M107,107.398L95,107.398L95,119.398L107,119.398L107,107.398Z" fill="#000000"/>
<path d="M119,107.398L107,107.398L107,119.398L119,119.398L119,107.398Z" fill="#000000"/>
<path d="M191,107.398L179,107.398L179,119.398L191,119.398L191,107.398Z" fill="#000000"/>
<path d="M215,107.398L203,107.398L203,119.398L215,119.398L215,107.398Z" fill="#000000"/>
<path d="M239,107.398L227,107.398L227,119.398L239,119.398L239,107.398Z" fill="#000000"/>
<path d="M263,107.398L251,107.398L251,119.398L263,119.398L263,107.398Z" fill="#000000"/>
<path d="M11,119.398L-1,119.398L-1,131.398L11,131.398L11,119.398Z" fill="#000000"/>
<path d="M47,119.398L35,119.398L35,131.398L47,131.398L47,119.398Z" fill="#000000"/>
<path d="M59,119.398L47,119.398L47,131.398L59,131.398L59,119.398Z" fill="#000000"/>
<path d="M83,119.398L71,119.398L71,131.398L83,131.398L83,119.398Z" fill="#000000"/>
<path d="M95,119.398L83,119.398L83,131.398L95,131.398L95,119.398Z" fill="#000000"/>
<path d="M107,119.398L95,119.398L95,131.398L107,131.398L107,119.398Z" fill="#000000"/>
<path d="M131,119.398L119,119.398L119,131.398L131,131.398L131,119.398Z" fill="#000000"/>
<path d="M155,119.398L143,119.398L143,131.398L155,131.398L155,119.398Z" fill="#000000"/>
<path d="M191,119.398L179,119.398L179,131.398L191,131.398L191,119.398Z" fill="#000000"/>
<path d="M227,119.398L215,119.398L215,131.398L227,131.398L227,119.398Z" fill="#000000"/>
<path d="M251,119.398L239,119.398L239,131.398L251,131.398L251,119.398Z" fill="#000000"/>
<path d="M275,119.398L263,119.398L263,131.398L275,131.398L275,119.398Z" fill="#000000"/>
<path d="M299,119.398L287,119.398L287,131.398L299,131.398L299,119.398Z" fill="#000000"/>
<path d="M323,119.398L311,119.398L311,131.398L323,131.398L323,119.398Z" fill="#000000"/>
<path d="M347,119.398L335,119.398L335,131.398L347,131.398L347,119.398Z" fill="#000000"/>
<path d="M71,131.398L59,131.398L59,143.398L71,143.398L71,131.398Z" fill="#000000"/>
<path d="M131,131.398L119,131.398L119,143.398L131,143.398L131,131.398Z" fill="#000000"/>
<path d="M167,131.398L155,131.398L155,143.398L167,143.398L167,131.398Z" fill="#000000"/>
<path d="M179,131.398L167,131.398L167,143.398L179,143.398L179,131.398Z" fill="#000000"/>
<path d="M203,131.398L191,131.398L191,143.398L203,143.398L203,131.398Z" fill="#000000"/>
<path d="M227,131.398L215,131.398L215,143.398L227,143.398L227,131.398Z" fill="#000000"/>
<path d="M239,131.398L227,131.398L227,143.398L239,143.398L239,131.398Z" fill="#000000"/>
<path d="M251,131.398L239,131.398L239,143.398L251,143.398L251,131.398Z" fill="#000000"/>
<path d="M263,131.398L251,131.398L251,143.398L263,143.398L263,131.398Z" fill="#000000"/>
<path d="M287,131.398L275,131.398L275,143.398L287,143.398L287,131.398Z" fill="#000000"/>
<path d="M299,131.398L287,131.398L287,143.398L299,143.398L299,131.398Z" fill="#000000"/>
<path d="M35,143.398L23,143.398L23,155.398L35,155.398L35,143.398Z" fill="#000000"/>
<path d="M83,143.398L71,143.398L71,155.398L83,155.398L83,143.398Z" fill="#000000"/>
<path d="M107,143.398L95,143.398L95,155.398L107,155.398L107,143.398Z" fill="#000000"/>
<path d="M119,143.398L107,143.398L107,155.398L119,155.398L119,143.398Z" fill="#000000"/>
<path d="M131,143.398L119,143.398L119,155.398L131,155.398L131,143.398Z" fill="#000000"/>
<path d="M143,143.398L131,143.398L131,155.398L143,155.398L143,143.398Z" fill="#000000"/>
<path d="M155,143.398L143,143.398L143,155.398L155,155.398L155,143.398Z" fill="#000000"/>
<path d="M179,143.398L167,143.398L167,155.398L179,155.398L179,143.398Z" fill="#000000"/>
<path d="M191,143.398L179,143.398L179,155.398L191,155.398L191,143.398Z" fill="#000000"/>
<path d="M227,143.398L215,143.398L215,155.398L227,155.398L227,143.398Z" fill="#000000"/>
<path d="M239,143.398L227,143.398L227,155.398L239,155.398L239,143.398Z" fill="#000000"/>
<path d="M275,143.398L263,143.398L263,155.398L275,155.398L275,143.398Z" fill="#000000"/>
<path d="M299,143.398L287,143.398L287,155.398L299,155.398L299,143.398Z" fill="#000000"/>
<path d="M323,143.398L311,143.398L311,155.398L323,155.398L323,143.398Z" fill="#000000"/>
<path d="M347,143.398L335,143.398L335,155.398L347,155.398L347,143.398Z" fill="#000000"/>
<path d="M11,155.398L-1,155.398L-1,167.398L11,167.398L11,155.398Z" fill="#000000"/>
<path d="M23,155.398L11,155.398L11,167.398L23,167.398L23,155.398Z" fill="#000000"/>
<path d="M35,155.398L23,155.398L23,167.398L35,167.398L35,155.398Z" fill="#000000"/>
<path d="M47,155.398L35,155.398L35,167.398L47,167.398L47,155.398Z" fill="#000000"/>
<path d="M59,155.398L47,155.398L47,167.398L59,167.398L59,155.398Z" fill="#000000"/>
<path d="M71,155.398L59,155.398L59,167.398L71,167.398L71,155.398Z" fill="#000000"/>
<path d="M191,155.398L179,155.398L179,167.398L191,167.398L191,155.398Z" fill="#000000"/>
<path d="M203,155.398L191,155.398L191,167.398L203,167.398L203,155.398Z" fill="#000000"/>
<path d="M227,155.398L215,155.398L215,167.398L227,167.398L227,155.398Z" fill="#000000"/>
<path d="M239,155.398L227,155.398L227,167.398L239,167.398L239,155.398Z" fill="#000000"/>
<path d="M263,155.398L251,155.398L251,167.398L263,167.398L263,155.398Z" fill="#000000"/>
<path d="M275,155.398L263,155.398L263,167.398L275,167.398L275,155.398Z" fill="#000000"/>
<path d="M287,155.398L275,155.398L275,167.398L287,167.398L287,155.398Z" fill="#000000"/>
<path d="M335,155.398L323,155.398L323,167.398L335,167.398L335,155.398Z" fill="#000000"/>
<path d="M347,155.398L335,155.398L335,167.398L347,167.398L347,155.398Z" fill="#000000"/>
<path d="M23,167.398L11,167.398L11,179.398L23,179.398L23,167.398Z" fill="#000000"/>
<path d="M47,167.398L35,167.398L35,179.398L47,179.398L47,167.398Z" fill="#000000"/>
<path d="M59,167.398L47,167.398L47,179.398L59,179.398L59,167.398Z" fill="#000000"/>
<path d="M71,167.398L59,167.398L59,179.398L71,179.398L71,167.398Z" fill="#000000"/>
<path d="M83,167.398L71,167.398L71,179.398L83,179.398L83,167.398Z" fill="#000000"/>
<path d="M95,167.398L83,167.398L83,179.398L95,179.398L95,167.398Z" fill="#000000"/>
<path d="M119,167.398L107,167.398L107,179.398L119,179.398L119,167.398Z" fill="#000000"/>
<path d="M143,167.398L131,167.398L131,179.398L143,179.398L143,167.398Z" fill="#000000"/>
<path d="M191,167.398L179,167.398L179,179.398L191,179.398L191,167.398Z" fill="#000000"/>
<path d="M203,167.398L191,167.398L191,179.398L203,179.398L203,167.398Z" fill="#000000"/>
<path d="M251,167.398L239,167.398L239,179.398L251,179.398L251,167.398Z" fill="#000000"/>
<path d="M275,167.398L263,167.398L263,179.398L275,179.398L275,167.398Z" fill="#000000"/>
<path d="M299,167.398L287,167.398L287,179.398L299,179.398L299,167.398Z" fill="#000000"/>
<path d="M311,167.398L299,167.398L299,179.398L311,179.398L311,167.398Z" fill="#000000"/>
<path d="M347,167.398L335,167.398L335,179.398L347,179.398L347,167.398Z" fill="#000000"/>
<path d="M23,179.398L11,179.398L11,191.398L23,191.398L23,179.398Z" fill="#000000"/>
<path d="M47,179.398L35,179.398L35,191.398L47,191.398L47,179.398Z" fill="#000000"/>
<path d="M107,179.398L95,179.398L95,191.398L107,191.398L107,179.398Z" fill="#000000"/>
<path d="M119,179.398L107,179.398L107,191.398L119,191.398L119,179.398Z" fill="#000000"/>
<path d="M143,179.398L131,179.398L131,191.398L143,191.398L143,179.398Z" fill="#000000"/>
<path d="M167,179.398L155,179.398L155,191.398L167,191.398L167,179.398Z" fill="#000000"/>
<path d="M179,179.398L167,179.398L167,191.398L179,191.398L179,179.398Z" fill="#000000"/>
<path d="M203,179.398L191,179.398L191,191.398L203,191.398L203,179.398Z" fill="#000000"/>
<path d="M215,179.398L203,179.398L203,191.398L215,191.398L215,179.398Z" fill="#000000"/>
<path d="M239,179.398L227,179.398L227,191.398L239,191.398L239,179.398Z" fill="#000000"/>
<path d="M263,179.398L251,179.398L251,191.398L263,191.398L263,179.398Z" fill="#000000"/>
<path d="M275,179.398L263,179.398L263,191.398L275,191.398L275,179.398Z" fill="#000000"/>
<path d="M299,179.398L287,179.398L287,191.398L299,191.398L299,179.398Z" fill="#000000"/>
<path d="M311,179.398L299,179.398L299,191.398L311,191.398L311,179.398Z" fill="#000000"/>
<path d="M335,179.398L323,179.398L323,191.398L335,191.398L335,179.398Z" fill="#000000"/>
<path d="M11,191.398L-1,191.398L-1,203.398L11,203.398L11,191.398Z" fill="#000000"/>
<path d="M35,191.398L23,191.398L23,203.398L35,203.398L35,191.398Z" fill="#000000"/>
<path d="M59,191.398L47,191.398L47,203.398L59,203.398L59,191.398Z" fill="#000000"/>
<path d="M83,191.398L71,191.398L71,203.398L83,203.398L83,191.398Z" fill="#000000"/>
<path d="M131,191.398L119,191.398L119,203.398L131,203.398L131,191.398Z" fill="#000000"/>
<path d="M155,191.398L143,191.398L143,203.398L155,203.398L155,191.398Z" fill="#000000"/>
<path d="M179,191.398L167,191.398L167,203.398L179,203.398L179,191.398Z" fill="#000000"/>
<path d="M191,191.398L179,191.398L179,203.398L191,203.398L191,191.398Z" fill="#000000"/>
<path d="M203,191.398L191,191.398L191,203.398L203,203.398L203,191.398Z" fill="#000000"/>
<path d="M239,191.398L227,191.398L227,203.398L239,203.398L239,191.398Z" fill="#000000"/>
<path d="M251,191.398L239,191.398L239,203.398L251,203.398L251,191.398Z" fill="#000000"/>
<path d="M263,191.398L251,191.398L251,203.398L263,203.398L263,191.398Z" fill="#000000"/>
<path d="M287,191.398L275,191.398L275,203.398L287,203.398L287,191.398Z" fill="#000000"/>
<path d="M311,191.398L299,191.398L299,203.398L311,203.398L311,191.398Z" fill="#000000"/>
<path d="M23,203.398L11,203.398L11,215.398L23,215.398L23,203.398Z" fill="#000000"/>
<path d="M35,203.398L23,203.398L23,215.398L35,215.398L35,203.398Z" fill="#000000"/>
<path d="M95,203.398L83,203.398L83,215.398L95,215.398L95,203.398Z" fill="#000000"/>
<path d="M131,203.398L119,203.398L119,215.398L131,215.398L131,203.398Z" fill="#000000"/>
<path d="M155,203.398L143,203.398L143,215.398L155,215.398L155,203.398Z" fill="#000000"/>
<path d="M167,203.398L155,203.398L155,215.398L167,215.398L167,203.398Z" fill="#000000"/>
<path d="M191,203.398L179,203.398L179,215.398L191,215.398L191,203.398Z" fill="#000000"/>
<path d="M203,203.398L191,203.398L191,215.398L203,215.398L203,203.398Z" fill="#000000"/>
<path d="M227,203.398L215,203.398L215,215.398L227,215.398L227,203.398Z" fill="#000000"/>
<path d="M239,203.398L227,203.398L227,215.398L239,215.398L239,203.398Z" fill="#000000"/>
<path d="M275,203.398L263,203.398L263,215.398L275,215.398L275,203.398Z" fill="#000000"/>
<path d="M11,215.398L-1,215.398L-1,227.398L11,227.398L11,215.398Z" fill="#000000"/>
<path d="M23,215.398L11,215.398L11,227.398L23,227.398L23,215.398Z" fill="#000000"/>
<path d="M35,215.398L23,215.398L23,227.398L35,227.398L35,215.398Z" fill="#000000"/>
<path d="M47,215.398L35,215.398L35,227.398L47,227.398L47,215.398Z" fill="#000000"/>
<path d="M59,215.398L47,215.398L47,227.398L59,227.398L59,215.398Z" fill="#000000"/>
<path d="M83,215.398L71,215.398L71,227.398L83,227.398L83,215.398Z" fill="#000000"/>
<path d="M95,215.398L83,215.398L83,227.398L95,227.398L95,215.398Z" fill="#000000"/>
<path d="M107,215.398L95,215.398L95,227.398L107,227.398L107,215.398Z" fill="#000000"/>
<path d="M167,215.398L155,215.398L155,227.398L167,227.398L167,215.398Z" fill="#000000"/>
<path d="M191,215.398L179,215.398L179,227.398L191,227.398L191,215.398Z" fill="#000000"/>
<path d="M215,215.398L203,215.398L203,227.398L215,227.398L215,215.398Z" fill="#000000"/>
<path d="M227,215.398L215,215.398L215,227.398L227,227.398L227,215.398Z" fill="#000000"/>
<path d="M239,215.398L227,215.398L227,227.398L239,227.398L239,215.398Z" fill="#000000"/>
<path d="M251,215.398L239,215.398L239,227.398L251,227.398L251,215.398Z" fill="#000000"/>
<path d="M287,215.398L275,215.398L275,227.398L287,227.398L287,215.398Z" fill="#000000"/>
<path d="M299,215.398L287,215.398L287,227.398L299,227.398L299,215.398Z" fill="#000000"/>
<path d="M11,227.398L-1,227.398L-1,239.398L11,239.398L11,227.398Z" fill="#000000"/>
<path d="M71,227.398L59,227.398L59,239.398L71,239.398L71,227.398Z" fill="#000000"/>
<path d="M107,227.398L95,227.398L95,239.398L107,239.398L107,227.398Z" fill="#000000"/>
<path d="M131,227.398L119,227.398L119,239.398L131,239.398L131,227.398Z" fill="#000000"/>
<path d="M143,227.398L131,227.398L131,239.398L143,239.398L143,227.398Z" fill="#000000"/>
<path d="M167,227.398L155,227.398L155,239.398L167,239.398L167,227.398Z" fill="#000000"/>
<path d="M239,227.398L227,227.398L227,239.398L239,239.398L239,227.398Z" fill="#000000"/>
<path d="M311,227.398L299,227.398L299,239.398L311,239.398L311,227.398Z" fill="#000000"/>
<path d="M323,227.398L311,227.398L311,239.398L323,239.398L323,227.398Z" fill="#000000"/>
<path d="M335,227.398L323,227.398L323,239.398L335,239.398L335,227.398Z" fill="#000000"/>
<path d="M35,239.398L23,239.398L23,251.398L35,251.398L35,239.398Z" fill="#000000"/>
<path d="M83,239.398L71,239.398L71,251.398L83,251.398L83,239.398Z" fill="#000000"/>
<path d="M119,239.398L107,239.398L107,251.398L119,251.398L119,239.398Z" fill="#000000"/>
<path d="M131,239.398L119,239.398L119,251.398L131,251.398L131,239.398Z" fill="#000000"/>
<path d="M167,239.398L155,239.398L155,251.398L167,251.398L167,239.398Z" fill="#000000"/>
<path d="M191,239.398L179,239.398L179,251.398L191,251.398L191,239.398Z" fill="#000000"/>
<path d="M203,239.398L191,239.398L191,251.398L203,251.398L203,239.398Z" fill="#000000"/>
<path d="M215,239.398L203,239.398L203,251.398L215,251.398L215,239.398Z" fill="#000000"/>
<path d="M251,239.398L239,239.398L239,251.398L251,251.398L251,239.398Z" fill="#000000"/>
<path d="M263,239.398L251,239.398L251,251.398L263,251.398L263,239.398Z" fill="#000000"/>
<path d="M275,239.398L263,239.398L263,251.398L275,251.398L275,239.398Z" fill="#000000"/>
<path d="M287,239.398L275,239.398L275,251.398L287,251.398L287,239.398Z" fill="#000000"/>
<path d="M299,239.398L287,239.398L287,251.398L299,251.398L299,239.398Z" fill="#000000"/>
<path d="M335,239.398L323,239.398L323,251.398L335,251.398L335,239.398Z" fill="#000000"/>
<path d="M347,239.398L335,239.398L335,251.398L347,251.398L347,239.398Z" fill="#000000"/>
<path d="M107,251.398L95,251.398L95,263.398L107,263.398L107,251.398Z" fill="#000000"/>
<path d="M155,251.398L143,251.398L143,263.398L155,263.398L155,251.398Z" fill="#000000"/>
<path d="M179,251.398L167,251.398L167,263.398L179,263.398L179,251.398Z" fill="#000000"/>
<path d="M191,251.398L179,251.398L179,263.398L191,263.398L191,251.398Z" fill="#000000"/>
<path d="M203,251.398L191,251.398L191,263.398L203,263.398L203,251.398Z" fill="#000000"/>
<path d="M215,251.398L203,251.398L203,263.398L215,263.398L215,251.398Z" fill="#000000"/>
<path d="M227,251.398L215,251.398L215,263.398L227,263.398L227,251.398Z" fill="#000000"/>
<path d="M251,251.398L239,251.398L239,263.398L251,263.398L251,251.398Z" fill="#000000"/>
<path d="M299,251.398L287,251.398L287,263.398L299,263.398L299,251.398Z" fill="#000000"/>
<path d="M323,251.398L311,251.398L311,263.398L323,263.398L323,251.398Z" fill="#000000"/>
<path d="M335,251.398L323,251.398L323,263.398L335,263.398L335,251.398Z" fill="#000000"/>
<path d="M11,263.398L-1,263.398L-1,275.398L11,275.398L11,263.398Z" fill="#000000"/>
<path d="M23,263.398L11,263.398L11,275.398L23,275.398L23,263.398Z" fill="#000000"/>
<path d="M35,263.398L23,263.398L23,275.398L35,275.398L35,263.398Z" fill="#000000"/>
<path d="M47,263.398L35,263.398L35,275.398L47,275.398L47,263.398Z" fill="#000000"/>
<path d="M59,263.398L47,263.398L47,275.398L59,275.398L59,263.398Z" fill="#000000"/>
<path d="M71,263.398L59,263.398L59,275.398L71,275.398L71,263.398Z" fill="#000000"/>
<path d="M83,263.398L71,263.398L71,275.398L83,275.398L83,263.398Z" fill="#000000"/>
<path d="M119,263.398L107,263.398L107,275.398L119,275.398L119,263.398Z" fill="#000000"/>
<path d="M143,263.398L131,263.398L131,275.398L143,275.398L143,263.398Z" fill="#000000"/>
<path d="M155,263.398L143,263.398L143,275.398L155,275.398L155,263.398Z" fill="#000000"/>
<path d="M179,263.398L167,263.398L167,275.398L179,275.398L179,263.398Z" fill="#000000"/>
<path d="M215,263.398L203,263.398L203,275.398L215,275.398L215,263.398Z" fill="#000000"/>
<path d="M251,263.398L239,263.398L239,275.398L251,275.398L251,263.398Z" fill="#000000"/>
<path d="M275,263.398L263,263.398L263,275.398L275,275.398L275,263.398Z" fill="#000000"/>
<path d="M299,263.398L287,263.398L287,275.398L299,275.398L299,263.398Z" fill="#000000"/>
<path d="M311,263.398L299,263.398L299,275.398L311,275.398L311,263.398Z" fill="#000000"/>
<path d="M347,263.398L335,263.398L335,275.398L347,275.398L347,263.398Z" fill="#000000"/>
<path d="M11,275.398L-1,275.398L-1,287.398L11,287.398L11,275.398Z" fill="#000000"/>
<path d="M83,275.398L71,275.398L71,287.398L83,287.398L83,275.398Z" fill="#000000"/>
<path d="M107,275.398L95,275.398L95,287.398L107,287.398L107,275.398Z" fill="#000000"/>
<path d="M131,275.398L119,275.398L119,287.398L131,287.398L131,275.398Z" fill="#000000"/>
<path d="M143,275.398L131,275.398L131,287.398L143,287.398L143,275.398Z" fill="#000000"/>
<path d="M167,275.398L155,275.398L155,287.398L167,287.398L167,275.398Z" fill="#000000"/>
<path d="M215,275.398L203,275.398L203,287.398L215,287.398L215,275.398Z" fill="#000000"/>
<path d="M227,275.398L215,275.398L215,287.398L227,287.398L227,275.398Z" fill="#000000"/>
<path d="M239,275.398L227,275.398L227,287.398L239,287.398L239,275.398Z" fill="#000000"/>
<path d="M251,275.398L239,275.398L239,287.398L251,287.398L251,275.398Z" fill="#000000"/>
<path d="M299,275.398L287,275.398L287,287.398L299,287.398L299,275.398Z" fill="#000000"/>
<path d="M311,275.398L299,275.398L299,287.398L311,287.398L311,275.398Z" fill="#000000"/>
<path d="M335,275.398L323,275.398L323,287.398L335,287.398L335,275.398Z" fill="#000000"/>
<path d="M11,287.398L-1,287.398L-1,299.398L11,299.398L11,287.398Z" fill="#000000"/>
<path d="M35,287.398L23,287.398L23,299.398L35,299.398L35,287.398Z" fill="#000000"/>
<path d="M47,287.398L35,287.398L35,299.398L47,299.398L47,287.398Z" fill="#000000"/>
<path d="M59,287.398L47,287.398L47,299.398L59,299.398L59,287.398Z" fill="#000000"/>
<path d="M83,287.398L71,287.398L71,299.398L83,299.398L83,287.398Z" fill="#000000"/>
<path d="M131,287.398L119,287.398L119,299.398L131,299.398L131,287.398Z" fill="#000000"/>
<path d="M143,287.398L131,287.398L131,299.398L143,299.398L143,287.398Z" fill="#000000"/>
<path d="M179,287.398L167,287.398L167,299.398L179,299.398L179,287.398Z" fill="#000000"/>
<path d="M191,287.398L179,287.398L179,299.398L191,299.398L191,287.398Z" fill="#000000"/>
<path d="M227,287.398L215,287.398L215,299.398L227,299.398L227,287.398Z" fill="#000000"/>
<path d="M239,287.398L227,287.398L227,299.398L239,299.398L239,287.398Z" fill="#000000"/>
<path d="M251,287.398L239,287.398L239,299.398L251,299.398L251,287.398Z" fill="#000000"/>
<path d="M263,287.398L251,287.398L251,299.398L263,299.398L263,287.398Z" fill="#000000"/>
<path d="M275,287.398L263,287.398L263,299.398L275,299.398L275,287.398Z" fill="#000000"/>
<path d="M287,287.398L275,287.398L275,299.398L287,299.398L287,287.398Z" fill="#000000"/>
<path d="M299,287.398L287,287.398L287,299.398L299,299.398L299,287.398Z" fill="#000000"/>
<path d="M311,287.398L299,287.398L299,299.398L311,299.398L311,287.398Z" fill="#000000"/>
<path d="M323,287.398L311,287.398L311,299.398L323,299.398L323,287.398Z" fill="#000000"/>
<path d="M335,287.398L323,287.398L323,299.398L335,299.398L335,287.398Z" fill="#000000"/>
<path d="M347,287.398L335,287.398L335,299.398L347,299.398L347,287.398Z" fill="#000000"/>
<path d="M11,299.398L-1,299.398L-1,311.398L11,311.398L11,299.398Z" fill="#000000"/>
<path d="M35,299.398L23,299.398L23,311.398L35,311.398L35,299.398Z" fill="#000000"/>
<path d="M47,299.398L35,299.398L35,311.398L47,311.398L47,299.398Z" fill="#000000"/>
<path d="M59,299.398L47,299.398L47,311.398L59,311.398L59,299.398Z" fill="#000000"/>
<path d="M83,299.398L71,299.398L71,311.398L83,311.398L83,299.398Z" fill="#000000"/>
<path d="M119,299.398L107,299.398L107,311.398L119,311.398L119,299.398Z" fill="#000000"/>
<path d="M131,299.398L119,299.398L119,311.398L131,311.398L131,299.398Z" fill="#000000"/>
<path d="M143,299.398L131,299.398L131,311.398L143,311.398L143,299.398Z" fill="#000000"/>
<path d="M155,299.398L143,299.398L143,311.398L155,311.398L155,299.398Z" fill="#000000"/>
<path d="M191,299.398L179,299.398L179,311.398L191,311.398L191,299.398Z" fill="#000000"/>
<path d="M203,299.398L191,299.398L191,311.398L203,311.398L203,299.398Z" fill="#000000"/>
<path d="M227,299.398L215,299.398L215,311.398L227,311.398L227,299.398Z" fill="#000000"/>
<path d="M299,299.398L287,299.398L287,311.398L299,311.398L299,299.398Z" fill="#000000"/>
<path d="M311,299.398L299,299.398L299,311.398L311,311.398L311,299.398Z" fill="#000000"/>
<path d="M11,311.398L-1,311.398L-1,323.398L11,323.398L11,311.398Z" fill="#000000"/>
<path d="M35,311.398L23,311.398L23,323.398L35,323.398L35,311.398Z" fill="#000000"/>
<path d="M47,311.398L35,311.398L35,323.398L47,323.398L47,311.398Z" fill="#000000"/>
<path d="M59,311.398L47,311.398L47,323.398L59,323.398L59,311.398Z" fill="#000000"/>
<path d="M83,311.398L71,311.398L71,323.398L83,323.398L83,311.398Z" fill="#000000"/>
<path d="M131,311.398L119,311.398L119,323.398L131,323.398L131,311.398Z" fill="#000000"/>
<path d="M143,311.398L131,311.398L131,323.398L143,323.398L143,311.398Z" fill="#000000"/>
<path d="M167,311.398L155,311.398L155,323.398L167,323.398L167,311.398Z" fill="#000000"/>
<path d="M179,311.398L167,311.398L167,323.398L179,323.398L179,311.398Z" fill="#000000"/>
<path d="M251,311.398L239,311.398L239,323.398L251,323.398L251,311.398Z" fill="#000000"/>
<path d="M263,311.398L251,311.398L251,323.398L263,323.398L263,311.398Z" fill="#000000"/>
<path d="M287,311.398L275,311.398L275,323.398L287,323.398L287,311.398Z" fill="#000000"/>
<path d="M11,323.398L-1,323.398L-1,335.398L11,335.398L11,323.398Z" fill="#000000"/>
<path d="M83,323.398L71,323.398L71,335.398L83,335.398L83,323.398Z" fill="#000000"/>
<path d="M131,323.398L119,323.398L119,335.398L131,335.398L131,323.398Z" fill="#000000"/>
<path d="M143,323.398L131,323.398L131,335.398L143,335.398L143,323.398Z" fill="#000000"/>
<path d="M155,323.398L143,323.398L143,335.398L155,335.398L155,323.398Z" fill="#000000"/>
<path d="M179,323.398L167,323.398L167,335.398L179,335.398L179,323.398Z" fill="#000000"/>
<path d="M191,323.398L179,323.398L179,335.398L191,335.398L191,323.398Z" fill="#000000"/>
<path d="M203,323.398L191,323.398L191,335.398L203,335.398L203,323.398Z" fill="#000000"/>
<path d="M227,323.398L215,323.398L215,335.398L227,335.398L227,323.398Z" fill="#000000"/>
<path d="M239,323.398L227,323.398L227,335.398L239,335.398L239,323.398Z" fill="#000000"/>
<path d="M263,323.398L251,323.398L251,335.398L263,335.398L263,323.398Z" fill="#000000"/>
<path d="M275,323.398L263,323.398L263,335.398L275,335.398L275,323.398Z" fill="#000000"/>
<path d="M287,323.398L275,323.398L275,335.398L287,335.398L287,323.398Z" fill="#000000"/>
<path d="M299,323.398L287,323.398L287,335.398L299,335.398L299,323.398Z" fill="#000000"/>
<path d="M335,323.398L323,323.398L323,335.398L335,335.398L335,323.398Z" fill="#000000"/>
<path d="M347,323.398L335,323.398L335,335.398L347,335.398L347,323.398Z" fill="#000000"/>
<path d="M11,335.398L-1,335.398L-1,347.398L11,347.398L11,335.398Z" fill="#000000"/>
<path d="M23,335.398L11,335.398L11,347.398L23,347.398L23,335.398Z" fill="#000000"/>
<path d="M35,335.398L23,335.398L23,347.398L35,347.398L35,335.398Z" fill="#000000"/>
<path d="M47,335.398L35,335.398L35,347.398L47,347.398L47,335.398Z" fill="#000000"/>
<path d="M59,335.398L47,335.398L47,347.398L59,347.398L59,335.398Z" fill="#000000"/>
<path d="M71,335.398L59,335.398L59,347.398L71,347.398L71,335.398Z" fill="#000000"/>
<path d="M83,335.398L71,335.398L71,347.398L83,347.398L83,335.398Z" fill="#000000"/>
<path d="M119,335.398L107,335.398L107,347.398L119,347.398L119,335.398Z" fill="#000000"/>
<path d="M155,335.398L143,335.398L143,347.398L155,347.398L155,335.398Z" fill="#000000"/>
<path d="M179,335.398L167,335.398L167,347.398L179,347.398L179,335.398Z" fill="#000000"/>
<path d="M215,335.398L203,335.398L203,347.398L215,347.398L215,335.398Z" fill="#000000"/>
<path d="M227,335.398L215,335.398L215,347.398L227,347.398L227,335.398Z" fill="#000000"/>
<path d="M239,335.398L227,335.398L227,347.398L239,347.398L239,335.398Z" fill="#000000"/>
<path d="M263,335.398L251,335.398L251,347.398L263,347.398L263,335.398Z" fill="#000000"/>
<path d="M311,335.398L299,335.398L299,347.398L311,347.398L311,335.398Z" fill="#000000"/>
<path d="M323,335.398L311,335.398L311,347.398L323,347.398L323,335.398Z" fill="#000000"/>
</svg>
