<svg width="246" height="126" viewBox="0 0 246 126" fill="none" xmlns="http://www.w3.org/2000/svg" xmlns:xlink="http://www.w3.org/1999/xlink">
<path d="M0,2.72C0,2.72 1.073,1.29 4.768,0.933C8.462,0.575 20.62,0.337 21.216,2.125C22.288,4.985 30.513,26.678 32.539,29.181C32.539,29.181 35.042,21.433 38.498,13.209C41.955,4.985 43.147,1.409 46.603,0.933C50.06,0.456 54.231,1.052 56.258,1.052C61.144,1.052 62.098,1.052 62.336,4.032C62.575,7.011 63.409,58.74 63.409,58.74C63.409,58.74 59.118,60.289 54.231,59.932C49.345,59.574 47.557,59.693 46.961,58.025C46.365,56.356 46.484,29.538 46.484,29.538L35.28,59.455L29.559,59.455C29.559,59.336 16.806,29.181 16.806,29.181L16.806,56.833C16.925,56.833 17.044,60.17 14.541,59.932C12.038,59.693 3.099,59.932 3.099,59.932C3.099,59.932 0,59.693 0,56.952L0,2.72Z" fill="#ED552A"/>
<path d="M75.922,25.724C76.041,25.724 76.279,25.724 76.398,25.724C77.352,25.724 80.093,25.605 80.928,27.274C81.762,28.942 88.317,43.841 101.786,44.556C115.373,45.152 122.405,31.088 122.882,29.538C123.597,27.035 122.882,23.102 122.882,23.102C122.882,23.102 122.405,20.003 125.624,19.407C128.842,18.811 128.007,19.407 129.199,19.288C131.702,18.93 133.371,17.738 134.444,20.122C135.516,22.506 137.543,35.974 128.603,46.582C119.664,57.19 110.725,60.527 104.527,60.289C98.329,60.051 90.701,62.077 75.206,45.748C72.107,42.53 70.916,38.358 69.843,35.974C66.029,27.869 70.916,26.678 72.346,26.678C73.776,26.678 75.445,26.201 76.16,25.962L75.922,25.724Z" fill="#08629E"/>
<path d="M81.647,10.587C81.647,10.348 81.767,10.229 81.886,9.991C82.601,8.918 85.223,5.104 90.825,4.985C96.427,4.866 99.049,15.116 96.308,16.785C93.566,18.453 90.944,19.407 87.011,19.049C83.078,18.692 80.456,14.163 81.528,10.468L81.647,10.587Z" fill="#08629E"/>
<path d="M102.382,5.939C102.501,5.343 102.74,4.747 103.216,4.271C104.408,2.721 107.865,-0.616 112.513,0.099C117.161,0.814 119.069,7.012 118.234,10.469C117.4,13.925 110.964,14.64 108.222,14.283C105.481,13.925 101.428,10.469 102.501,5.82L102.382,5.939Z" fill="#08629E"/>
<path d="M140.881,3.318C140.881,3.318 139.689,0.1 143.384,0.1C147.079,0.1 151.727,-0.258 153.992,0.576C156.256,1.411 155.184,1.172 155.899,1.768C159.117,4.867 173.658,30.016 175.208,30.851L174.254,1.649C174.254,1.649 173.896,0.219 176.042,0.1C178.187,-0.02 188.557,0.1 188.557,0.1C188.557,0.1 190.345,0.815 190.345,2.722C190.345,4.629 191.06,57.668 191.06,57.668C191.06,57.668 190.345,59.575 188.438,59.694C186.531,59.814 175.565,59.694 175.565,59.694L157.329,31.804C157.329,31.804 158.521,57.43 158.402,57.787C158.283,58.145 158.044,59.218 156.733,59.456C155.422,59.694 142.311,60.171 141.715,58.503C141.715,58.503 141.715,23.818 141.596,21.196C141.477,18.574 141.596,12.615 141.358,11.184C141.119,9.754 141.119,3.556 141.119,3.556L140.881,3.318Z" fill="#ED552A"/>
<path d="M245.294,62.196C245.294,62.196 231.348,6.415 231.11,5.223C230.872,4.032 230.394,3.793 230.394,3.793L209.894,3.793C208.584,3.793 194.519,61.839 194.519,61.839C193.804,63.15 203.578,62.554 207.272,62.554C210.966,62.554 211.562,61.6 211.802,61.362C212.04,61.123 213.708,52.184 213.708,52.184L226.342,52.184C226.342,52.184 228.012,60.885 229.322,62.196C230.038,62.792 231.11,62.673 232.064,62.673C235.044,62.911 236.832,63.03 239.096,63.03C245.652,63.15 245.174,62.196 245.174,62.196L245.294,62.196ZM216.33,41.695L220.026,25.843L224.078,41.695L216.33,41.695Z" fill="#ED552A"/>
<path d="M24.554,65.625C24.554,65.625 24.434,64.314 26.699,63.957C28.964,63.599 32.778,62.646 34.208,65.149C35.638,67.652 33.254,121.645 33.254,121.645C33.254,121.645 30.99,122.956 28.725,123.075C26.461,123.194 23.6,122.479 23.242,121.287C22.885,120.095 24.554,65.625 24.554,65.625Z" fill="#08629E"/>
<path d="M16.09,63.599C16.09,63.599 14.183,63.599 14.064,65.268C13.944,66.936 13.11,79.213 12.752,93.039C12.395,106.626 12.752,120.929 12.752,120.929C12.752,120.929 13.944,122.479 15.613,122.479C17.282,122.479 22.049,122.121 22.645,121.406C23.241,120.691 23.956,65.744 23.956,65.744C23.956,65.744 23.48,63.718 21.096,63.241C18.712,62.765 17.401,63.241 15.971,63.599L16.09,63.599Z" fill="#ED552A"/>
<path d="M5.721,63.719C5.721,63.719 4.649,63.719 4.291,66.222C3.933,68.725 0,120.572 0,120.572C0,120.572 0.715,122.122 2.861,122.36C5.006,122.599 9.535,122.479 10.012,121.764C10.489,121.049 13.588,77.545 13.588,77.545C13.588,77.545 14.78,65.626 13.588,65.03C11.919,64.076 9.178,63.48 5.721,63.719Z" fill="#08629E"/>
<path d="M133.131,123.342C133.131,123.342 119.186,67.561 118.948,66.369C118.709,65.178 118.232,64.939 118.232,64.939L97.732,64.939C96.421,64.939 82.356,122.985 82.356,122.985C81.641,124.296 91.415,123.7 95.11,123.7C98.805,123.7 99.4,122.746 99.639,122.508C99.877,122.269 101.546,113.33 101.546,113.33L114.18,113.33C114.18,113.33 115.849,122.031 117.16,123.342C117.875,123.938 118.948,123.819 119.901,123.819C122.881,124.057 124.669,124.176 126.933,124.176C133.489,124.296 133.012,123.342 133.012,123.342L133.131,123.342ZM104.168,102.961L107.863,87.108L111.915,102.961L104.168,102.961Z" fill="#ED552A"/>
<path d="M194.751,106.178C194.751,106.178 186.169,65.773 186.05,64.938C186.05,64.104 185.573,63.866 185.573,63.866C185.573,63.866 171.866,63.389 170.913,63.389C169.959,63.389 158.398,104.629 158.398,104.629C157.802,105.582 164.834,105.463 167.575,105.463C170.198,105.463 170.674,104.867 170.793,104.748C171.032,104.629 172.462,98.192 172.462,98.192L181.521,98.55C181.521,98.55 182.474,104.748 183.428,105.701C183.904,106.178 184.739,106.059 185.335,106.178C187.48,106.416 188.791,106.536 190.341,106.655C194.989,106.893 194.751,106.178 194.751,106.178ZM174.369,90.683L177.468,79.36L179.971,90.803L174.369,90.564L174.369,90.683Z" fill="#ED552A"/>
<path d="M37.419,63.865L46.239,63.865C46.239,63.865 50.768,63.865 50.768,67.679C50.768,71.494 51.245,80.075 51.245,80.075C51.245,80.075 53.748,75.665 55.893,71.136C58.038,66.607 57.919,65.892 59.111,64.461C60.303,63.031 62.687,63.746 63.402,63.746C66.858,63.746 76.632,63.746 76.632,63.746C76.632,63.746 79.254,64.223 77.109,67.918C74.963,71.613 72.46,75.308 68.527,80.91C65.428,85.439 61.018,89.849 61.256,91.637C61.495,93.424 62.091,93.186 62.568,93.901C63.044,94.616 80.565,120.6 79.016,122.03C77.466,123.46 74.129,123.103 74.129,123.103L61.852,123.103C61.852,123.103 60.184,122.507 59.23,120.004C58.277,117.501 54.105,106.059 51.96,104.747L52.436,121.792C52.436,121.792 53.152,123.818 47.669,123.818C42.186,123.818 38.014,123.818 38.014,123.818C38.014,123.818 35.988,122.745 35.988,120.6C35.988,118.454 34.796,66.368 34.796,66.368C34.796,66.368 33.843,63.746 37.061,63.746L37.419,63.865Z" fill="#ED552A"/>
<path d="M136.59,68.277C136.59,68.277 135.517,63.152 138.735,63.152L151.25,63.152C151.25,63.152 153.515,62.079 153.395,66.609C153.276,71.138 154.349,108.563 154.349,108.563C154.349,108.563 185.219,109.159 195.35,111.305C195.35,111.305 196.423,114.284 195.827,118.694C195.231,123.104 195.827,122.27 194.635,123.7C193.443,125.131 156.375,120.482 137.543,121.793C137.543,121.793 137.543,90.685 136.828,68.277L136.59,68.277Z" fill="#ED552A"/>
<path d="M196.655,64.82C196.655,64.82 195.94,76.5 196.655,78.05C197.371,79.599 206.43,78.527 206.43,78.527C206.43,79.599 206.906,122.985 206.906,122.985C206.906,122.985 206.668,124.892 208.694,124.892C210.72,124.892 219.302,124.534 220.732,124.296C222.162,124.057 223.712,124.296 223.712,122.031C223.712,119.766 223.354,78.527 223.354,78.527L246,78.527L246,65.654C246,65.177 245.642,64.82 245.166,64.82C240.398,64.82 216.798,64.939 213.462,65.177C210.124,65.416 197.967,64.224 196.775,64.82L196.655,64.82Z" fill="#ED552A"/>
<path d="M229.078,84.129C229.078,84.129 228.72,82.937 230.27,82.699C231.82,82.461 239.21,82.341 240.162,82.699C241.116,83.057 241.236,84.606 241.354,86.275C241.474,87.943 242.07,123.462 242.07,123.462C242.07,123.462 240.758,124.415 237.422,124.415C234.084,124.415 230.628,123.819 230.27,123.581C229.912,123.343 228.958,84.01 228.958,84.01L229.078,84.129Z" fill="#ED552A"/>
</svg>
