<svg width="70" height="62" viewBox="0 0 70 62" fill="none" xmlns="http://www.w3.org/2000/svg" xmlns:xlink="http://www.w3.org/1999/xlink">
<path d="M60.707,33.715L58.926,31.96L58.926,31.96L60.707,33.715ZM37.217,57.546L38.919,59.377L38.932,59.365L37.217,57.546ZM30.636,57.405L28.855,59.159L28.855,59.159L30.636,57.405ZM7.292,33.715L5.511,35.469L5.511,35.469L7.292,33.715ZM7.292,7.833L5.511,6.078L5.511,6.078L7.292,7.833ZM33.151,7.833L31.37,9.588L31.37,9.588L33.151,7.833ZM33.999,8.694L32.219,10.449C32.689,10.926 33.33,11.194 33.999,11.194C34.669,11.194 35.31,10.926 35.78,10.449L33.999,8.694ZM34.847,7.833L36.628,9.588L36.629,9.588L34.847,7.833ZM60.707,7.833L58.926,9.587L58.926,9.588L60.707,7.833ZM63.5,20.774C63.5,24.965 61.856,28.988 58.926,31.96L62.487,35.47C66.344,31.557 68.5,26.272 68.5,20.774L63.5,20.774ZM58.926,31.96C51.025,39.978 43.565,48.125 35.502,55.727L38.932,59.365C47.074,51.689 54.767,43.304 62.487,35.469L58.926,31.96ZM35.515,55.714C34.646,56.522 33.243,56.488 32.417,55.65L28.855,59.159C31.584,61.928 36.073,62.021 38.919,59.377L35.515,55.714ZM32.417,55.65L9.073,31.96L5.511,35.469L28.855,59.159L32.417,55.65ZM9.073,31.96C2.976,25.772 2.976,15.775 9.073,9.588L5.511,6.078C-2.504,14.212 -2.504,27.335 5.511,35.469L9.073,31.96ZM9.073,9.588C15.219,3.35 25.224,3.35 31.37,9.588L34.931,6.078C26.827,-2.146 13.616,-2.146 5.511,6.078L9.073,9.588ZM31.37,9.588L32.219,10.449L35.78,6.939L34.931,6.078L31.37,9.588ZM35.78,10.449L36.628,9.588L33.067,6.079L32.219,6.939L35.78,10.449ZM36.629,9.588C39.577,6.594 43.59,4.908 47.777,4.908L47.777,-0.092C42.243,-0.092 36.95,2.136 33.066,6.079L36.629,9.588ZM47.777,4.908C51.964,4.908 55.976,6.593 58.926,9.587L62.488,6.079C58.604,2.136 53.311,-0.092 47.777,-0.092L47.777,4.908ZM58.926,9.588C61.856,12.56 63.5,16.582 63.5,20.774L68.5,20.774C68.5,15.276 66.344,9.991 62.487,6.078L58.926,9.588Z" fill="#78746D"/>
</svg>
