<svg width="31" height="31" viewBox="0 0 31 31" fill="none" xmlns="http://www.w3.org/2000/svg">
<mask id="path-1-outside-1_2001_4274" maskUnits="userSpaceOnUse" x="-0.0600004" y="1" width="31" height="28" fill="black">
<rect fill="white" x="-0.0600004" y="1" width="31" height="28"/>
<path d="M23.7074 9.46598C22.8561 9.31934 21.994 9.24387 21.1302 9.24033C18.1829 9.23791 15.297 10.0831 12.8166 11.675C10.3299 10.104 7.44447 9.27955 4.50308 9.29971C3.63923 9.30325 2.77719 9.37873 1.92588 9.52536C1.64702 9.57344 1.3945 9.71949 1.21378 9.93723C1.03305 10.155 0.936012 10.4301 0.940126 10.713V24.9648C0.937582 25.1393 0.97353 25.3122 1.04541 25.4713C1.11729 25.6303 1.22334 25.7715 1.35601 25.8849C1.48868 25.9983 1.64471 26.0811 1.813 26.1273C1.98128 26.1736 2.15769 26.1821 2.32968 26.1525C4.0316 25.8578 5.77529 25.9067 7.45803 26.2963C9.14077 26.6858 10.7285 27.4082 12.1278 28.4209L12.2703 28.504H12.4009C12.5327 28.5589 12.6739 28.5871 12.8166 28.5871C12.9593 28.5871 13.1006 28.5589 13.2323 28.504H13.3629L13.5055 28.4209C14.895 27.3856 16.4782 26.6398 18.1612 26.2277C19.8443 25.8156 21.593 25.7456 23.3036 26.0218C23.4756 26.0515 23.652 26.0429 23.8203 25.9967C23.9885 25.9504 24.1446 25.8677 24.2772 25.7543C24.4099 25.6409 24.516 25.4997 24.5878 25.3406C24.6597 25.1816 24.6957 25.0087 24.6931 24.8342V10.5824C24.6808 10.3118 24.5763 10.0535 24.397 9.85047C24.2177 9.64741 23.9744 9.51175 23.7074 9.46598ZM11.629 25.2498C9.43168 24.0939 6.98588 23.4906 4.50308 23.4921C4.11115 23.4921 3.71923 23.4921 3.31543 23.4921V11.6156C3.71098 11.5928 4.10752 11.5928 4.50308 11.6156C7.03679 11.6128 9.51521 12.3564 11.629 13.7534V25.2498ZM22.3178 23.5396C21.914 23.5396 21.5221 23.5396 21.1302 23.5396C18.6474 23.5381 16.2016 24.1414 14.0043 25.2973V13.7534C16.118 12.3564 18.5965 11.6128 21.1302 11.6156C21.5257 11.5928 21.9223 11.5928 22.3178 11.6156V23.5396Z"/>
<path d="M21.6024 4.89039L22.1441 2.93785L23.7201 4.5496L25.6697 4.90055L23.9914 6.23552L23.5367 8.55679L21.8737 6.57631L19.8619 6.30846L21.6024 4.89039Z"/>
<path d="M24.0321 4.36433C23.8841 4.35349 23.7406 4.3083 23.6131 4.23235C23.4856 4.1564 23.3775 4.05178 23.2975 3.92678L22.1698 2.09573C22.1472 2.05941 22.1136 2.03116 22.074 2.01501C22.0343 1.99887 21.9906 1.99565 21.949 2.00582C21.9075 2.01598 21.8702 2.03901 21.8425 2.07163C21.8147 2.10424 21.798 2.14477 21.7947 2.18744L21.6096 4.3395C21.5965 4.48591 21.5501 4.62737 21.4738 4.75302C21.3975 4.87866 21.2935 4.98514 21.1696 5.06427L19.3433 6.2117C19.307 6.23434 19.2788 6.26787 19.2626 6.3075C19.2465 6.34714 19.2433 6.39086 19.2534 6.43244C19.2636 6.47401 19.2866 6.51132 19.3192 6.53903C19.3519 6.56675 19.3924 6.58346 19.4351 6.58678L21.5847 6.76201C21.7313 6.7746 21.8729 6.82086 21.9986 6.89717C22.1243 6.97348 22.2307 7.0778 22.3095 7.20198L23.4569 9.0282C23.4796 9.06452 23.5131 9.09277 23.5527 9.10892C23.5924 9.12506 23.6361 9.12828 23.6777 9.11811C23.7193 9.10795 23.7566 9.08492 23.7843 9.0523C23.812 9.01969 23.8287 8.97916 23.832 8.93649L24.0073 6.78684C24.0206 6.63901 24.0682 6.49633 24.1463 6.3701C24.2244 6.24388 24.3308 6.13758 24.4571 6.05966L26.2759 4.92452C26.3123 4.90188 26.3405 4.86835 26.3566 4.82871C26.3728 4.78907 26.376 4.74535 26.3658 4.70378C26.3557 4.6622 26.3326 4.6249 26.3 4.59718C26.2674 4.56947 26.2269 4.55276 26.1842 4.54943L24.0321 4.36433ZM24.2316 5.71937C24.0539 5.83125 23.9047 5.98295 23.7957 6.16247C23.6867 6.34199 23.621 6.5444 23.6038 6.7537L23.4765 8.29535L22.6542 6.98589C22.5416 6.80811 22.3895 6.65878 22.2096 6.54959C22.0297 6.44041 21.827 6.37433 21.6174 6.35652L20.0762 6.23125L21.3852 5.40697C21.5627 5.29486 21.7118 5.1431 21.8208 4.96363C21.9297 4.78415 21.9956 4.58186 22.0131 4.37264L22.1404 2.83099L22.9627 4.14045C23.0752 4.31802 23.2273 4.46709 23.4071 4.57595C23.5869 4.68481 23.7895 4.7505 23.999 4.76785L25.5407 4.89509L24.2316 5.71937Z"/>
<path d="M20.5547 11.2191L20.9178 9.9102L21.9743 10.9907L23.2813 11.226L22.1562 12.1209L21.8514 13.677L20.7365 12.3493L19.3879 12.1698L20.5547 11.2191Z"/>
<path d="M22.1835 10.8665C22.0842 10.8592 21.9881 10.8289 21.9026 10.778C21.8171 10.7271 21.7446 10.657 21.691 10.5732L20.935 9.34566C20.9198 9.32131 20.8974 9.30237 20.8708 9.29155C20.8442 9.28072 20.8149 9.27857 20.787 9.28538C20.7592 9.2922 20.7342 9.30764 20.7156 9.3295C20.697 9.35136 20.6858 9.37853 20.6836 9.40714L20.5595 10.8498C20.5507 10.948 20.5196 11.0428 20.4685 11.127C20.4173 11.2113 20.3476 11.2827 20.2645 11.3357L19.0403 12.1049C19.0159 12.1201 18.997 12.1426 18.9862 12.1691C18.9753 12.1957 18.9732 12.225 18.98 12.2529C18.9868 12.2808 19.0022 12.3058 19.0241 12.3243C19.046 12.3429 19.0731 12.3541 19.1017 12.3564L20.5428 12.4738C20.6411 12.4823 20.736 12.5133 20.8203 12.5644C20.9046 12.6156 20.9759 12.6855 21.0287 12.7688L21.7979 13.993C21.8131 14.0174 21.8356 14.0363 21.8621 14.0472C21.8887 14.058 21.918 14.0601 21.9459 14.0533C21.9737 14.0465 21.9988 14.0311 22.0173 14.0092C22.0359 13.9873 22.0471 13.9602 22.0493 13.9316L22.1668 12.4905C22.1758 12.3914 22.2077 12.2957 22.26 12.2111C22.3124 12.1265 22.3837 12.0552 22.4684 12.003L23.6877 11.242C23.712 11.2268 23.7309 11.2044 23.7418 11.1778C23.7526 11.1512 23.7547 11.1219 23.7479 11.094C23.7411 11.0662 23.7257 11.0412 23.7038 11.0226C23.6819 11.004 23.6548 10.9928 23.6262 10.9906L22.1835 10.8665ZM22.3172 11.7749C22.1981 11.8499 22.098 11.9516 22.025 12.0719C21.9519 12.1923 21.9079 12.328 21.8963 12.4683L21.811 13.5018L21.2598 12.6239C21.1843 12.5047 21.0823 12.4046 20.9617 12.3314C20.8411 12.2582 20.7053 12.2139 20.5647 12.202L19.5316 12.118L20.4091 11.5654C20.5281 11.4903 20.628 11.3885 20.701 11.2682C20.7741 11.1479 20.8182 11.0123 20.83 10.8721L20.9153 9.83856L21.4665 10.7164C21.542 10.8354 21.6439 10.9354 21.7645 11.0083C21.885 11.0813 22.0208 11.1254 22.1613 11.137L23.1947 11.2223L22.3172 11.7749Z"/>
<path d="M26.8628 9.50771L27.226 8.19877L28.2825 9.27926L29.5894 9.51453L28.4644 10.4095L28.1595 11.9656L27.0447 10.6379L25.6961 10.4584L26.8628 9.50771Z"/>
<path d="M28.4916 9.15506C28.3924 9.14779 28.2962 9.11749 28.2107 9.06658C28.1253 9.01566 28.0528 8.94552 27.9992 8.86173L27.2432 7.63423C27.228 7.60988 27.2055 7.59094 27.179 7.58012C27.1524 7.56929 27.1231 7.56714 27.0952 7.57395C27.0673 7.58077 27.0423 7.59621 27.0238 7.61807C27.0052 7.63993 26.994 7.6671 26.9917 7.69571L26.8676 9.13841C26.8589 9.23655 26.8278 9.33139 26.7766 9.41561C26.7255 9.49984 26.6557 9.57123 26.5727 9.62427L25.3484 10.3935C25.3241 10.4087 25.3052 10.4311 25.2943 10.4577C25.2835 10.4843 25.2813 10.5136 25.2882 10.5415C25.295 10.5693 25.3104 10.5943 25.3323 10.6129C25.3541 10.6315 25.3813 10.6427 25.4099 10.6449L26.851 10.7624C26.9492 10.7708 27.0442 10.8019 27.1285 10.853C27.2127 10.9042 27.284 10.9741 27.3369 11.0573L28.1061 12.2816C28.1212 12.306 28.1437 12.3249 28.1703 12.3357C28.1969 12.3465 28.2262 12.3487 28.2541 12.3419C28.2819 12.3351 28.3069 12.3196 28.3255 12.2978C28.3441 12.2759 28.3553 12.2487 28.3575 12.2201L28.475 10.7791C28.4839 10.68 28.5158 10.5843 28.5682 10.4997C28.6205 10.4151 28.6919 10.3438 28.7766 10.2916L29.9958 9.5306C30.0202 9.51542 30.0391 9.49294 30.0499 9.46637C30.0608 9.4398 30.0629 9.41049 30.0561 9.38262C30.0493 9.35475 30.0338 9.32974 30.012 9.31116C29.9901 9.29258 29.9629 9.28138 29.9343 9.27915L28.4916 9.15506ZM28.6254 10.0634C28.5063 10.1384 28.4062 10.2401 28.3331 10.3605C28.2601 10.4808 28.216 10.6165 28.2045 10.7568L28.1192 11.7903L27.5679 10.9125C27.4925 10.7933 27.3905 10.6932 27.2699 10.62C27.1493 10.5468 27.0134 10.5025 26.8729 10.4906L25.8397 10.4066L26.7172 9.85401C26.8362 9.77885 26.9362 9.67712 27.0092 9.5568C27.0823 9.43649 27.1264 9.30088 27.1382 9.16062L27.2235 8.12713L27.7747 9.00497C27.8501 9.12401 27.9521 9.22394 28.0726 9.29692C28.1932 9.3699 28.329 9.41393 28.4694 9.42557L29.5029 9.51087L28.6254 10.0634Z"/>
</mask>
<path d="M23.7074 9.46598C22.8561 9.31934 21.994 9.24387 21.1302 9.24033C18.1829 9.23791 15.297 10.0831 12.8166 11.675C10.3299 10.104 7.44447 9.27955 4.50308 9.29971C3.63923 9.30325 2.77719 9.37873 1.92588 9.52536C1.64702 9.57344 1.3945 9.71949 1.21378 9.93723C1.03305 10.155 0.936012 10.4301 0.940126 10.713V24.9648C0.937582 25.1393 0.97353 25.3122 1.04541 25.4713C1.11729 25.6303 1.22334 25.7715 1.35601 25.8849C1.48868 25.9983 1.64471 26.0811 1.813 26.1273C1.98128 26.1736 2.15769 26.1821 2.32968 26.1525C4.0316 25.8578 5.77529 25.9067 7.45803 26.2963C9.14077 26.6858 10.7285 27.4082 12.1278 28.4209L12.2703 28.504H12.4009C12.5327 28.5589 12.6739 28.5871 12.8166 28.5871C12.9593 28.5871 13.1006 28.5589 13.2323 28.504H13.3629L13.5055 28.4209C14.895 27.3856 16.4782 26.6398 18.1612 26.2277C19.8443 25.8156 21.593 25.7456 23.3036 26.0218C23.4756 26.0515 23.652 26.0429 23.8203 25.9967C23.9885 25.9504 24.1446 25.8677 24.2772 25.7543C24.4099 25.6409 24.516 25.4997 24.5878 25.3406C24.6597 25.1816 24.6957 25.0087 24.6931 24.8342V10.5824C24.6808 10.3118 24.5763 10.0535 24.397 9.85047C24.2177 9.64741 23.9744 9.51175 23.7074 9.46598ZM11.629 25.2498C9.43168 24.0939 6.98588 23.4906 4.50308 23.4921C4.11115 23.4921 3.71923 23.4921 3.31543 23.4921V11.6156C3.71098 11.5928 4.10752 11.5928 4.50308 11.6156C7.03679 11.6128 9.51521 12.3564 11.629 13.7534V25.2498ZM22.3178 23.5396C21.914 23.5396 21.5221 23.5396 21.1302 23.5396C18.6474 23.5381 16.2016 24.1414 14.0043 25.2973V13.7534C16.118 12.3564 18.5965 11.6128 21.1302 11.6156C21.5257 11.5928 21.9223 11.5928 22.3178 11.6156V23.5396Z" fill="#ED552A"/>
<path d="M21.6024 4.89039L22.1441 2.93785L23.7201 4.5496L25.6697 4.90055L23.9914 6.23552L23.5367 8.55679L21.8737 6.57631L19.8619 6.30846L21.6024 4.89039Z" fill="white"/>
<path d="M24.0321 4.36433C23.8841 4.35349 23.7406 4.3083 23.6131 4.23235C23.4856 4.1564 23.3775 4.05178 23.2975 3.92678L22.1698 2.09573C22.1472 2.05941 22.1136 2.03116 22.074 2.01501C22.0343 1.99887 21.9906 1.99565 21.949 2.00582C21.9075 2.01598 21.8702 2.03901 21.8425 2.07163C21.8147 2.10424 21.798 2.14477 21.7947 2.18744L21.6096 4.3395C21.5965 4.48591 21.5501 4.62737 21.4738 4.75302C21.3975 4.87866 21.2935 4.98514 21.1696 5.06427L19.3433 6.2117C19.307 6.23434 19.2788 6.26787 19.2626 6.3075C19.2465 6.34714 19.2433 6.39086 19.2534 6.43244C19.2636 6.47401 19.2866 6.51132 19.3192 6.53903C19.3519 6.56675 19.3924 6.58346 19.4351 6.58678L21.5847 6.76201C21.7313 6.7746 21.8729 6.82086 21.9986 6.89717C22.1243 6.97348 22.2307 7.0778 22.3095 7.20198L23.4569 9.0282C23.4796 9.06452 23.5131 9.09277 23.5527 9.10892C23.5924 9.12506 23.6361 9.12828 23.6777 9.11811C23.7193 9.10795 23.7566 9.08492 23.7843 9.0523C23.812 9.01969 23.8287 8.97916 23.832 8.93649L24.0073 6.78684C24.0206 6.63901 24.0682 6.49633 24.1463 6.3701C24.2244 6.24388 24.3308 6.13758 24.4571 6.05966L26.2759 4.92452C26.3123 4.90188 26.3405 4.86835 26.3566 4.82871C26.3728 4.78907 26.376 4.74535 26.3658 4.70378C26.3557 4.6622 26.3326 4.6249 26.3 4.59718C26.2674 4.56947 26.2269 4.55276 26.1842 4.54943L24.0321 4.36433ZM24.2316 5.71937C24.0539 5.83125 23.9047 5.98295 23.7957 6.16247C23.6867 6.34199 23.621 6.5444 23.6038 6.7537L23.4765 8.29535L22.6542 6.98589C22.5416 6.80811 22.3895 6.65878 22.2096 6.54959C22.0297 6.44041 21.827 6.37433 21.6174 6.35652L20.0762 6.23125L21.3852 5.40697C21.5627 5.29486 21.7118 5.1431 21.8208 4.96363C21.9297 4.78415 21.9956 4.58186 22.0131 4.37264L22.1404 2.83099L22.9627 4.14045C23.0752 4.31802 23.2273 4.46709 23.4071 4.57595C23.5869 4.68481 23.7895 4.7505 23.999 4.76785L25.5407 4.89509L24.2316 5.71937Z" fill="#ED552A"/>
<path d="M20.5547 11.2191L20.9178 9.9102L21.9743 10.9907L23.2813 11.226L22.1562 12.1209L21.8514 13.677L20.7365 12.3493L19.3879 12.1698L20.5547 11.2191Z" fill="white"/>
<path d="M22.1835 10.8665C22.0842 10.8592 21.9881 10.8289 21.9026 10.778C21.8171 10.7271 21.7446 10.657 21.691 10.5732L20.935 9.34566C20.9198 9.32131 20.8974 9.30237 20.8708 9.29155C20.8442 9.28072 20.8149 9.27857 20.787 9.28538C20.7592 9.2922 20.7342 9.30764 20.7156 9.3295C20.697 9.35136 20.6858 9.37853 20.6836 9.40714L20.5595 10.8498C20.5507 10.948 20.5196 11.0428 20.4685 11.127C20.4173 11.2113 20.3476 11.2827 20.2645 11.3357L19.0403 12.1049C19.0159 12.1201 18.997 12.1426 18.9862 12.1691C18.9753 12.1957 18.9732 12.225 18.98 12.2529C18.9868 12.2808 19.0022 12.3058 19.0241 12.3243C19.046 12.3429 19.0731 12.3541 19.1017 12.3564L20.5428 12.4738C20.6411 12.4823 20.736 12.5133 20.8203 12.5644C20.9046 12.6156 20.9759 12.6855 21.0287 12.7688L21.7979 13.993C21.8131 14.0174 21.8356 14.0363 21.8621 14.0472C21.8887 14.058 21.918 14.0601 21.9459 14.0533C21.9737 14.0465 21.9988 14.0311 22.0173 14.0092C22.0359 13.9873 22.0471 13.9602 22.0493 13.9316L22.1668 12.4905C22.1758 12.3914 22.2077 12.2957 22.26 12.2111C22.3124 12.1265 22.3837 12.0552 22.4684 12.003L23.6877 11.242C23.712 11.2268 23.7309 11.2044 23.7418 11.1778C23.7526 11.1512 23.7547 11.1219 23.7479 11.094C23.7411 11.0662 23.7257 11.0412 23.7038 11.0226C23.6819 11.004 23.6548 10.9928 23.6262 10.9906L22.1835 10.8665ZM22.3172 11.7749C22.1981 11.8499 22.098 11.9516 22.025 12.0719C21.9519 12.1923 21.9079 12.328 21.8963 12.4683L21.811 13.5018L21.2598 12.6239C21.1843 12.5047 21.0823 12.4046 20.9617 12.3314C20.8411 12.2582 20.7053 12.2139 20.5647 12.202L19.5316 12.118L20.4091 11.5654C20.5281 11.4903 20.628 11.3885 20.701 11.2682C20.7741 11.1479 20.8182 11.0123 20.83 10.8721L20.9153 9.83856L21.4665 10.7164C21.542 10.8354 21.6439 10.9354 21.7645 11.0083C21.885 11.0813 22.0208 11.1254 22.1613 11.137L23.1947 11.2223L22.3172 11.7749Z" fill="#ED552A"/>
<path d="M26.8628 9.50771L27.226 8.19877L28.2825 9.27926L29.5894 9.51453L28.4644 10.4095L28.1595 11.9656L27.0447 10.6379L25.6961 10.4584L26.8628 9.50771Z" fill="white"/>
<path d="M28.4916 9.15506C28.3924 9.14779 28.2962 9.11749 28.2107 9.06658C28.1253 9.01566 28.0528 8.94552 27.9992 8.86173L27.2432 7.63423C27.228 7.60988 27.2055 7.59094 27.179 7.58012C27.1524 7.56929 27.1231 7.56714 27.0952 7.57395C27.0673 7.58077 27.0423 7.59621 27.0238 7.61807C27.0052 7.63993 26.994 7.6671 26.9917 7.69571L26.8676 9.13841C26.8589 9.23655 26.8278 9.33139 26.7766 9.41561C26.7255 9.49984 26.6557 9.57123 26.5727 9.62427L25.3484 10.3935C25.3241 10.4087 25.3052 10.4311 25.2943 10.4577C25.2835 10.4843 25.2813 10.5136 25.2882 10.5415C25.295 10.5693 25.3104 10.5943 25.3323 10.6129C25.3541 10.6315 25.3813 10.6427 25.4099 10.6449L26.851 10.7624C26.9492 10.7708 27.0442 10.8019 27.1285 10.853C27.2127 10.9042 27.284 10.9741 27.3369 11.0573L28.1061 12.2816C28.1212 12.306 28.1437 12.3249 28.1703 12.3357C28.1969 12.3465 28.2262 12.3487 28.2541 12.3419C28.2819 12.3351 28.3069 12.3196 28.3255 12.2978C28.3441 12.2759 28.3553 12.2487 28.3575 12.2201L28.475 10.7791C28.4839 10.68 28.5158 10.5843 28.5682 10.4997C28.6205 10.4151 28.6919 10.3438 28.7766 10.2916L29.9958 9.5306C30.0202 9.51542 30.0391 9.49294 30.0499 9.46637C30.0608 9.4398 30.0629 9.41049 30.0561 9.38262C30.0493 9.35475 30.0338 9.32974 30.012 9.31116C29.9901 9.29258 29.9629 9.28138 29.9343 9.27915L28.4916 9.15506ZM28.6254 10.0634C28.5063 10.1384 28.4062 10.2401 28.3331 10.3605C28.2601 10.4808 28.216 10.6165 28.2045 10.7568L28.1192 11.7903L27.5679 10.9125C27.4925 10.7933 27.3905 10.6932 27.2699 10.62C27.1493 10.5468 27.0134 10.5025 26.8729 10.4906L25.8397 10.4066L26.7172 9.85401C26.8362 9.77885 26.9362 9.67712 27.0092 9.5568C27.0823 9.43649 27.1264 9.30088 27.1382 9.16062L27.2235 8.12713L27.7747 9.00497C27.8501 9.12401 27.9521 9.22394 28.0726 9.29692C28.1932 9.3699 28.329 9.41393 28.4694 9.42557L29.5029 9.51087L28.6254 10.0634Z" fill="#ED552A"/>
<path d="M23.7074 9.46598C22.8561 9.31934 21.994 9.24387 21.1302 9.24033C18.1829 9.23791 15.297 10.0831 12.8166 11.675C10.3299 10.104 7.44447 9.27955 4.50308 9.29971C3.63923 9.30325 2.77719 9.37873 1.92588 9.52536C1.64702 9.57344 1.3945 9.71949 1.21378 9.93723C1.03305 10.155 0.936012 10.4301 0.940126 10.713V24.9648C0.937582 25.1393 0.97353 25.3122 1.04541 25.4713C1.11729 25.6303 1.22334 25.7715 1.35601 25.8849C1.48868 25.9983 1.64471 26.0811 1.813 26.1273C1.98128 26.1736 2.15769 26.1821 2.32968 26.1525C4.0316 25.8578 5.77529 25.9067 7.45803 26.2963C9.14077 26.6858 10.7285 27.4082 12.1278 28.4209L12.2703 28.504H12.4009C12.5327 28.5589 12.6739 28.5871 12.8166 28.5871C12.9593 28.5871 13.1006 28.5589 13.2323 28.504H13.3629L13.5055 28.4209C14.895 27.3856 16.4782 26.6398 18.1612 26.2277C19.8443 25.8156 21.593 25.7456 23.3036 26.0218C23.4756 26.0515 23.652 26.0429 23.8203 25.9967C23.9885 25.9504 24.1446 25.8677 24.2772 25.7543C24.4099 25.6409 24.516 25.4997 24.5878 25.3406C24.6597 25.1816 24.6957 25.0087 24.6931 24.8342V10.5824C24.6808 10.3118 24.5763 10.0535 24.397 9.85047C24.2177 9.64741 23.9744 9.51175 23.7074 9.46598ZM11.629 25.2498C9.43168 24.0939 6.98588 23.4906 4.50308 23.4921C4.11115 23.4921 3.71923 23.4921 3.31543 23.4921V11.6156C3.71098 11.5928 4.10752 11.5928 4.50308 11.6156C7.03679 11.6128 9.51521 12.3564 11.629 13.7534V25.2498ZM22.3178 23.5396C21.914 23.5396 21.5221 23.5396 21.1302 23.5396C18.6474 23.5381 16.2016 24.1414 14.0043 25.2973V13.7534C16.118 12.3564 18.5965 11.6128 21.1302 11.6156C21.5257 11.5928 21.9223 11.5928 22.3178 11.6156V23.5396Z" stroke="#ED552A" stroke-width="0.4" mask="url(#path-1-outside-1_2001_4274)"/>
<path d="M21.6024 4.89039L22.1441 2.93785L23.7201 4.5496L25.6697 4.90055L23.9914 6.23552L23.5367 8.55679L21.8737 6.57631L19.8619 6.30846L21.6024 4.89039Z" stroke="#ED552A" stroke-width="0.4" mask="url(#path-1-outside-1_2001_4274)"/>
<path d="M24.0321 4.36433C23.8841 4.35349 23.7406 4.3083 23.6131 4.23235C23.4856 4.1564 23.3775 4.05178 23.2975 3.92678L22.1698 2.09573C22.1472 2.05941 22.1136 2.03116 22.074 2.01501C22.0343 1.99887 21.9906 1.99565 21.949 2.00582C21.9075 2.01598 21.8702 2.03901 21.8425 2.07163C21.8147 2.10424 21.798 2.14477 21.7947 2.18744L21.6096 4.3395C21.5965 4.48591 21.5501 4.62737 21.4738 4.75302C21.3975 4.87866 21.2935 4.98514 21.1696 5.06427L19.3433 6.2117C19.307 6.23434 19.2788 6.26787 19.2626 6.3075C19.2465 6.34714 19.2433 6.39086 19.2534 6.43244C19.2636 6.47401 19.2866 6.51132 19.3192 6.53903C19.3519 6.56675 19.3924 6.58346 19.4351 6.58678L21.5847 6.76201C21.7313 6.7746 21.8729 6.82086 21.9986 6.89717C22.1243 6.97348 22.2307 7.0778 22.3095 7.20198L23.4569 9.0282C23.4796 9.06452 23.5131 9.09277 23.5527 9.10892C23.5924 9.12506 23.6361 9.12828 23.6777 9.11811C23.7193 9.10795 23.7566 9.08492 23.7843 9.0523C23.812 9.01969 23.8287 8.97916 23.832 8.93649L24.0073 6.78684C24.0206 6.63901 24.0682 6.49633 24.1463 6.3701C24.2244 6.24388 24.3308 6.13758 24.4571 6.05966L26.2759 4.92452C26.3123 4.90188 26.3405 4.86835 26.3566 4.82871C26.3728 4.78907 26.376 4.74535 26.3658 4.70378C26.3557 4.6622 26.3326 4.6249 26.3 4.59718C26.2674 4.56947 26.2269 4.55276 26.1842 4.54943L24.0321 4.36433ZM24.2316 5.71937C24.0539 5.83125 23.9047 5.98295 23.7957 6.16247C23.6867 6.34199 23.621 6.5444 23.6038 6.7537L23.4765 8.29535L22.6542 6.98589C22.5416 6.80811 22.3895 6.65878 22.2096 6.54959C22.0297 6.44041 21.827 6.37433 21.6174 6.35652L20.0762 6.23125L21.3852 5.40697C21.5627 5.29486 21.7118 5.1431 21.8208 4.96363C21.9297 4.78415 21.9956 4.58186 22.0131 4.37264L22.1404 2.83099L22.9627 4.14045C23.0752 4.31802 23.2273 4.46709 23.4071 4.57595C23.5869 4.68481 23.7895 4.7505 23.999 4.76785L25.5407 4.89509L24.2316 5.71937Z" stroke="#ED552A" stroke-width="0.4" mask="url(#path-1-outside-1_2001_4274)"/>
<path d="M20.5547 11.2191L20.9178 9.9102L21.9743 10.9907L23.2813 11.226L22.1562 12.1209L21.8514 13.677L20.7365 12.3493L19.3879 12.1698L20.5547 11.2191Z" stroke="#ED552A" stroke-width="0.4" mask="url(#path-1-outside-1_2001_4274)"/>
<path d="M22.1835 10.8665C22.0842 10.8592 21.9881 10.8289 21.9026 10.778C21.8171 10.7271 21.7446 10.657 21.691 10.5732L20.935 9.34566C20.9198 9.32131 20.8974 9.30237 20.8708 9.29155C20.8442 9.28072 20.8149 9.27857 20.787 9.28538C20.7592 9.2922 20.7342 9.30764 20.7156 9.3295C20.697 9.35136 20.6858 9.37853 20.6836 9.40714L20.5595 10.8498C20.5507 10.948 20.5196 11.0428 20.4685 11.127C20.4173 11.2113 20.3476 11.2827 20.2645 11.3357L19.0403 12.1049C19.0159 12.1201 18.997 12.1426 18.9862 12.1691C18.9753 12.1957 18.9732 12.225 18.98 12.2529C18.9868 12.2808 19.0022 12.3058 19.0241 12.3243C19.046 12.3429 19.0731 12.3541 19.1017 12.3564L20.5428 12.4738C20.6411 12.4823 20.736 12.5133 20.8203 12.5644C20.9046 12.6156 20.9759 12.6855 21.0287 12.7688L21.7979 13.993C21.8131 14.0174 21.8356 14.0363 21.8621 14.0472C21.8887 14.058 21.918 14.0601 21.9459 14.0533C21.9737 14.0465 21.9988 14.0311 22.0173 14.0092C22.0359 13.9873 22.0471 13.9602 22.0493 13.9316L22.1668 12.4905C22.1758 12.3914 22.2077 12.2957 22.26 12.2111C22.3124 12.1265 22.3837 12.0552 22.4684 12.003L23.6877 11.242C23.712 11.2268 23.7309 11.2044 23.7418 11.1778C23.7526 11.1512 23.7547 11.1219 23.7479 11.094C23.7411 11.0662 23.7257 11.0412 23.7038 11.0226C23.6819 11.004 23.6548 10.9928 23.6262 10.9906L22.1835 10.8665ZM22.3172 11.7749C22.1981 11.8499 22.098 11.9516 22.025 12.0719C21.9519 12.1923 21.9079 12.328 21.8963 12.4683L21.811 13.5018L21.2598 12.6239C21.1843 12.5047 21.0823 12.4046 20.9617 12.3314C20.8411 12.2582 20.7053 12.2139 20.5647 12.202L19.5316 12.118L20.4091 11.5654C20.5281 11.4903 20.628 11.3885 20.701 11.2682C20.7741 11.1479 20.8182 11.0123 20.83 10.8721L20.9153 9.83856L21.4665 10.7164C21.542 10.8354 21.6439 10.9354 21.7645 11.0083C21.885 11.0813 22.0208 11.1254 22.1613 11.137L23.1947 11.2223L22.3172 11.7749Z" stroke="#ED552A" stroke-width="0.4" mask="url(#path-1-outside-1_2001_4274)"/>
<path d="M26.8628 9.50771L27.226 8.19877L28.2825 9.27926L29.5894 9.51453L28.4644 10.4095L28.1595 11.9656L27.0447 10.6379L25.6961 10.4584L26.8628 9.50771Z" stroke="#ED552A" stroke-width="0.4" mask="url(#path-1-outside-1_2001_4274)"/>
<path d="M28.4916 9.15506C28.3924 9.14779 28.2962 9.11749 28.2107 9.06658C28.1253 9.01566 28.0528 8.94552 27.9992 8.86173L27.2432 7.63423C27.228 7.60988 27.2055 7.59094 27.179 7.58012C27.1524 7.56929 27.1231 7.56714 27.0952 7.57395C27.0673 7.58077 27.0423 7.59621 27.0238 7.61807C27.0052 7.63993 26.994 7.6671 26.9917 7.69571L26.8676 9.13841C26.8589 9.23655 26.8278 9.33139 26.7766 9.41561C26.7255 9.49984 26.6557 9.57123 26.5727 9.62427L25.3484 10.3935C25.3241 10.4087 25.3052 10.4311 25.2943 10.4577C25.2835 10.4843 25.2813 10.5136 25.2882 10.5415C25.295 10.5693 25.3104 10.5943 25.3323 10.6129C25.3541 10.6315 25.3813 10.6427 25.4099 10.6449L26.851 10.7624C26.9492 10.7708 27.0442 10.8019 27.1285 10.853C27.2127 10.9042 27.284 10.9741 27.3369 11.0573L28.1061 12.2816C28.1212 12.306 28.1437 12.3249 28.1703 12.3357C28.1969 12.3465 28.2262 12.3487 28.2541 12.3419C28.2819 12.3351 28.3069 12.3196 28.3255 12.2978C28.3441 12.2759 28.3553 12.2487 28.3575 12.2201L28.475 10.7791C28.4839 10.68 28.5158 10.5843 28.5682 10.4997C28.6205 10.4151 28.6919 10.3438 28.7766 10.2916L29.9958 9.5306C30.0202 9.51542 30.0391 9.49294 30.0499 9.46637C30.0608 9.4398 30.0629 9.41049 30.0561 9.38262C30.0493 9.35475 30.0338 9.32974 30.012 9.31116C29.9901 9.29258 29.9629 9.28138 29.9343 9.27915L28.4916 9.15506ZM28.6254 10.0634C28.5063 10.1384 28.4062 10.2401 28.3331 10.3605C28.2601 10.4808 28.216 10.6165 28.2045 10.7568L28.1192 11.7903L27.5679 10.9125C27.4925 10.7933 27.3905 10.6932 27.2699 10.62C27.1493 10.5468 27.0134 10.5025 26.8729 10.4906L25.8397 10.4066L26.7172 9.85401C26.8362 9.77885 26.9362 9.67712 27.0092 9.5568C27.0823 9.43649 27.1264 9.30088 27.1382 9.16062L27.2235 8.12713L27.7747 9.00497C27.8501 9.12401 27.9521 9.22394 28.0726 9.29692C28.1932 9.3699 28.329 9.41393 28.4694 9.42557L29.5029 9.51087L28.6254 10.0634Z" stroke="#ED552A" stroke-width="0.4" mask="url(#path-1-outside-1_2001_4274)"/>
</svg>
