<svg width="31" height="31" viewBox="0 0 31 31" fill="none" xmlns="http://www.w3.org/2000/svg">
<path d="M14.313 14.3454V15.295C14.313 16.5077 13.9664 17.3975 13.652 17.955L15.5001 19.1876L17.3481 17.955C17.0337 17.3975 16.6871 16.5077 16.6871 15.295V14.3454C16.6871 10.8212 22.9671 9.85641 26.7733 9.83647C26.7296 8.63706 26.6451 7.39398 26.5093 6.09107C22.8997 3.02277 19.5104 2 15.5001 2C11.4897 2 8.10043 3.02277 4.49083 6.09107C4.35598 7.39398 4.27051 8.63706 4.22683 9.83647C8.033 9.85641 14.313 10.8212 14.313 14.3454ZM19.2986 4.84893C19.2986 4.84893 20.2483 5.69886 20.2483 6.74822C20.2483 7.79758 19.2986 8.64751 19.2986 8.64751C19.2986 8.64751 18.349 7.79758 18.349 6.74822C18.349 5.69886 19.2986 4.84893 19.2986 4.84893ZM15.5001 6.74822C15.5001 6.74822 16.4497 7.59815 16.4497 8.64751C16.4497 9.69687 15.5001 10.5468 15.5001 10.5468C15.5001 10.5468 14.5504 9.69687 14.5504 8.64751C14.5504 7.59815 15.5001 6.74822 15.5001 6.74822ZM11.7015 4.84893C11.7015 4.84893 12.6511 5.69886 12.6511 6.74822C12.6511 7.79758 11.7015 8.64751 11.7015 8.64751C11.7015 8.64751 10.7518 7.79758 10.7518 6.74822C10.7518 5.69886 11.7015 4.84893 11.7015 4.84893Z" fill="#ED552A"/>
<path d="M20.6765 20.9321C20.4087 20.6443 20.4239 20.1932 20.7126 19.9254C21.0013 19.6576 21.4505 19.6728 21.7192 19.9615C22.5625 20.8665 23.4913 21.5389 24.3497 22.0441C24.5292 21.7497 24.6926 21.4439 24.8492 21.1343C23.6385 20.4288 22.477 19.5456 21.6252 18.6292C21.3584 18.3414 21.3745 17.8904 21.6622 17.6226C21.9509 17.3548 22.4001 17.3718 22.6698 17.6605C23.3934 18.4402 24.3934 19.2085 25.4361 19.8305C26.3953 17.3861 26.8036 14.5296 26.796 11.2618C22.5093 11.278 18.1115 12.428 18.1115 14.3453V15.295C18.1115 16.8438 18.8285 17.614 18.8579 17.6463C19.1694 17.972 19.1039 18.4962 18.744 18.7365L15.8951 20.6358C15.6557 20.7953 15.3443 20.7953 15.1049 20.6358L12.256 18.7365C11.8828 18.4877 11.8296 17.9578 12.1478 17.6406C12.1715 17.615 12.8885 16.8448 12.8885 15.295V14.3453C12.8885 12.428 8.49067 11.278 4.20398 11.2609C4.19638 14.5286 4.60473 17.3851 5.56387 19.8295C6.60753 19.2066 7.60656 18.4392 8.33018 17.6596C8.59988 17.3709 9.04907 17.3548 9.33776 17.6216C9.6255 17.8894 9.64164 18.3405 9.37479 18.6282C8.52296 19.5456 7.36155 20.4288 6.15075 21.1334C6.30839 21.443 6.47173 21.7488 6.65026 22.0431C7.50874 21.5379 8.43749 20.8656 9.28078 19.9606C9.54953 19.6728 9.99966 19.6576 10.2874 19.9245C10.5761 20.1923 10.5913 20.6434 10.3235 20.9311C9.39948 21.9235 8.39571 22.6633 7.45651 23.2255C9.24374 25.5549 11.8458 27.3479 15.5 28.59C19.1542 27.3479 21.7563 25.5549 23.5435 23.2264C22.6043 22.6642 21.6005 21.9244 20.6765 20.9321ZM8.85249 15.5324C7.54103 15.5324 6.47838 14.3453 6.47838 14.3453C6.47838 14.3453 7.54103 13.1583 8.85249 13.1583C10.1639 13.1583 11.2266 14.3453 11.2266 14.3453C11.2266 14.3453 10.1639 15.5324 8.85249 15.5324ZM15.5 25.7411C13.9872 25.7411 12.6663 24.9643 11.9065 24.404C13.1021 24.4932 14.2996 24.5531 15.5 24.5531C16.7004 24.5531 17.8979 24.4932 19.0935 24.404C18.3337 24.9643 17.0128 25.7411 15.5 25.7411ZM11.7052 23.4372C12.6511 21.9425 13.6007 21.9425 14.3243 21.9425C14.6776 21.9425 15.1467 22.8921 15.5 22.8921C15.8533 22.8921 16.3224 21.9425 16.6757 21.9425C17.3993 21.9425 18.3489 21.9425 19.2948 23.4372C16.7716 23.6405 14.2284 23.6405 11.7052 23.4372ZM19.7734 14.3453C19.7734 14.3453 20.8361 13.1583 22.1475 13.1583C23.459 13.1583 24.5216 14.3453 24.5216 14.3453C24.5216 14.3453 23.459 15.5324 22.1475 15.5324C20.8361 15.5324 19.7734 14.3453 19.7734 14.3453Z" fill="#ED552A"/>
</svg>
