<svg width="31" height="31" viewBox="0 0 31 31" fill="none" xmlns="http://www.w3.org/2000/svg">
<path d="M15.5 2C8.16315 2 2.20503 7.95818 2.20503 15.295C2.20503 22.6319 8.16315 28.59 15.5 28.59C22.8369 28.59 28.795 22.6319 28.795 15.295C28.795 7.95818 22.8369 2 15.5 2ZM15.5 2.98487C17.3859 2.98487 19.1635 3.41914 20.7609 4.17646C19.6077 4.40789 18.6278 4.91509 18.3924 4.86289C18.0339 4.78312 16.2928 5.08449 15.6546 5.3238C15.0145 5.5641 15.0746 5.8684 14.916 5.90878C14.7555 5.94915 14.6698 6.09096 14.4236 6.37065C14.1754 6.64935 14.5457 6.98615 14.5457 6.98615C14.5457 6.98615 15.4941 7.19887 15.6536 6.49375C15.7482 6.07422 15.6142 6.85125 15.6536 7.17033C15.693 7.49039 16.2888 7.57016 16.6079 7.17033C16.7517 6.99109 16.732 6.55087 16.8236 6.40118C16.9359 6.21801 17.184 6.35882 17.316 6.34011C17.3948 6.33026 17.2136 6.46419 17.316 6.52525C17.5199 6.64539 17.9394 6.43957 17.8389 6.92508C17.7986 7.12008 17.1801 7.15948 17.1003 7.44803C17.0196 7.73658 16.8846 7.9099 16.8846 7.9099L15.562 7.93935L15.1307 7.32492C15.1307 7.32492 14.7112 7.50614 14.8224 7.8784C14.9002 8.13445 14.6993 8.43284 14.6993 8.43284C14.6993 8.43284 14.0228 8.54118 14.0228 8.74011C14.0228 8.85041 13.747 8.8632 13.5914 8.92525C13.4644 8.97449 13.3787 9.18416 13.2536 9.2009L12.6066 9.29455C12.3259 9.32902 12.453 9.39303 12.453 9.51022C12.453 9.66976 12.9769 9.69439 12.9769 9.69439C12.9769 9.69439 13.3117 9.82438 13.1916 10.0637C13.0724 10.304 13.2773 10.4025 13.038 10.4025C12.9336 10.4025 12.6933 10.37 12.453 10.3719C12.1428 10.3719 11.8454 10.2734 11.8375 10.4014C11.8079 10.8958 11.807 11.6029 11.807 11.6029C11.807 11.6029 12.2275 11.8098 12.453 11.7566C12.7662 11.6837 13.2251 11.9289 13.4378 11.3567C13.4545 11.3124 13.4654 11.2169 13.4998 11.1716C13.6476 10.9776 13.8081 10.5857 14.0533 10.4635C14.204 10.3877 14.4138 10.4369 14.4847 10.434C14.6442 10.4241 14.915 10.2173 14.915 10.2173C14.915 10.2173 15.6221 10.3138 15.8082 11.018C15.8634 11.2258 15.8112 11.5675 15.9313 11.6335C16.0042 11.6739 16.3312 11.3262 16.3312 11.3262L16.7005 11.3558L16.4848 10.8634L15.8073 10.0952L15.9304 10.0351C15.9304 10.0351 16.4444 10.0696 16.4848 10.1887C16.5242 10.3089 17.1427 10.6122 17.0393 10.9579C16.8659 11.53 17.2855 11.6659 17.2855 11.6659C17.2855 11.6659 17.6489 11.7516 17.8074 11.4503C17.9463 11.1873 17.962 10.9579 17.962 10.9579L18.4239 10.8634C18.4239 10.8634 18.3796 9.90515 18.8848 9.87856C19.391 9.85296 19.4393 9.87856 19.4393 9.87856C19.4393 9.87856 20.5501 10.2458 20.6703 10.5245C20.7894 10.8042 20.8446 11.0702 20.4851 11.1096C20.1266 11.15 19.5929 11.081 19.5929 11.081C19.5929 11.081 18.1807 10.8672 18.3008 11.2661C18.42 11.6649 18.547 12.0658 18.547 12.0658C18.547 12.0658 18.8533 12.0333 19.131 12.0944C19.4284 12.1623 19.8086 12.1248 19.8086 12.1248L19.8706 12.8025L19.6855 12.8634C19.4846 12.9195 18.8907 12.958 18.7312 13.0171C18.5716 13.0761 16.8325 12.7728 16.7931 12.8319C16.7527 12.891 16.1884 13.0958 15.8693 13.0171C15.5502 12.9373 15.4695 12.1859 15.4695 12.1859C15.4695 12.1859 15.4114 11.8274 15.1918 11.8471L13.4683 12.0007C13.4683 12.0007 12.9759 12.2203 12.9759 12.3395C12.9759 12.3395 12.8381 12.24 12.6381 12.3395C12.4382 12.44 12.1329 12.4262 12.0532 12.5857C11.9734 12.7462 11.6592 13.0446 11.4987 13.3243C11.3402 13.604 10.8812 13.6257 10.7601 14.125C10.6409 14.6233 10.5562 15.4584 10.5759 15.8179C10.5956 16.1763 10.5858 17.0686 10.9452 17.2636C11.3047 17.4605 11.7813 17.9451 11.9606 18.1253C12.1398 18.3045 13.103 18.4513 13.2231 18.3715C13.3413 18.2927 13.7726 18.1253 13.9913 18.1253C14.2119 18.1253 14.6836 18.1598 14.8234 18.2789C14.9623 18.3991 15.1336 18.6571 15.2538 18.9565C15.373 19.2558 15.4931 19.7611 15.5926 19.9413C15.692 20.1205 16.0712 20.4632 15.9304 20.803C15.7915 21.1427 15.5522 21.4805 15.5926 21.8804C15.632 22.2792 15.8713 22.8081 15.9619 22.9883C16.0525 23.1675 16.6286 23.7308 16.6079 23.9111C16.5882 24.0903 16.7576 24.046 16.9772 24.1267C17.1968 24.2065 18.1294 23.9485 18.2703 23.788C18.4091 23.6284 18.6258 23.1242 18.8858 22.8652C19.1448 22.6052 19.6835 22.1797 19.9622 21.8804C20.2419 21.581 20.5275 21.3052 20.5472 20.9261C20.5669 20.5459 20.3472 19.7118 20.5472 19.572C20.7471 19.4321 21.0238 19.2165 21.2247 18.9565C21.4236 18.6975 21.8481 18.7172 22.1475 17.8791C22.4469 17.041 22.5453 16.781 22.4863 16.7406C22.4272 16.7003 21.9505 16.8982 21.8708 17.0174C21.791 17.1375 21.3242 17.1671 21.2247 17.2636C21.1243 17.3601 20.6703 17.2636 20.6703 17.2636C20.6703 17.2636 20.8623 16.5072 20.7628 16.2482C20.6624 15.9892 20.1523 14.9768 19.9937 14.6174C19.8617 14.3219 19.8391 13.9812 19.9011 13.7557C19.9267 13.7921 19.9425 13.8128 19.9622 13.8482C20.0331 13.9763 20.4162 14.4293 20.5777 14.8941C20.9224 15.8927 21.3163 16.6175 21.3163 16.6175C21.3163 16.6175 21.8363 16.6372 22.7009 15.9715C23.2899 15.5185 23.9192 15.4958 24.0245 15.2634C24.2245 14.8242 23.409 14.4322 23.409 14.4322H22.6704L22.117 13.4789L22.2706 13.418C22.2706 13.418 22.8841 14.125 23.1628 14.125C23.4425 14.125 24.1851 14.061 24.4244 14.3417C24.6647 14.6204 25.4131 15.0931 25.5333 15.5727C25.6534 16.0504 25.5924 16.7199 25.809 16.9563C26.1163 17.2902 26.395 17.2647 26.395 17.2647L26.7633 16.4029L27.626 15.4181L27.8082 15.3254C27.7914 22.1157 22.2932 27.6052 15.5 27.6052C12.4065 27.6062 9.42701 26.437 7.15962 24.3325L7.52893 23.789L7.96027 22.0656L6.91342 21.4185L5.71392 21.0187L4.91326 19.0796C4.91326 19.0796 4.16678 18.4759 3.54733 18.1972C3.31325 17.2474 3.19325 16.2732 3.18984 15.295C3.18984 14.5692 3.26567 13.8611 3.38681 13.1697C4.14314 12.5897 5.15947 12.1259 5.15947 12.1259C5.15947 12.1259 5.72081 12.0609 4.75963 10.4635C4.63738 10.2627 4.54515 10.045 4.48586 9.81749C4.88963 9.00601 5.3712 8.24073 5.93648 7.54348C5.88724 7.83498 5.69619 9.04935 6.05171 9.26305C6.45056 9.50236 6.83365 8.76375 6.91342 8.52444C6.99319 8.28513 7.82536 7.37221 8.14444 6.89359C8.37193 6.55186 8.29216 5.88902 8.05777 5.501C10.1948 3.86759 12.8102 2.98339 15.5 2.98487ZM13.0685 5.2007C12.8774 5.2204 12.4845 5.32281 12.4845 5.63204V6.21701C12.4845 6.21701 12.3663 6.42668 12.2994 6.49267C12.2324 6.56062 12.2905 6.8669 12.3299 6.98507C12.3693 7.1062 12.3919 7.47748 12.3919 7.47748C12.3919 7.47748 12.585 7.58 12.6381 7.6322C12.6913 7.68439 13.1463 7.79951 13.3452 7.69315C13.5451 7.58679 13.6604 7.30623 13.8081 7.29343C13.9538 7.27964 13.8642 7.28063 13.8376 7.17033C13.812 7.06397 13.9607 6.67792 13.9607 6.67792L13.5609 6.33903C13.5609 6.33903 13.3186 5.82201 13.3462 5.66149C13.3718 5.50195 13.1493 5.2204 13.1611 5.2007C13.164 5.19085 13.1315 5.19085 13.0685 5.2007ZM12.0226 6.37065C11.9685 6.39428 11.8641 6.52527 11.807 6.55482C11.7311 6.59421 11.7548 6.72606 11.7144 6.83144C11.675 6.93878 11.5607 7.32384 11.5607 7.32384L11.807 7.41749C11.807 7.41749 12.1979 7.34365 12.2383 7.26289C12.2698 7.19888 12.1546 6.84926 12.1152 6.70942C12.1054 6.67593 12.1152 6.64835 12.1152 6.64835L12.0532 6.40118C12.0433 6.38149 12.0404 6.36178 12.0226 6.37065ZM22.3316 9.75546C22.4232 9.75546 22.5995 9.81848 22.6399 9.84803C22.6931 9.8884 22.6931 10.3562 22.6399 10.6487C22.6203 10.7464 22.6339 10.8479 22.6785 10.9371C22.723 11.0263 22.7961 11.0981 22.8861 11.1411C22.9668 11.1677 23.023 11.8078 23.0092 11.9408C22.9964 12.0737 22.6202 12.1742 22.5168 12.187C22.4134 12.2007 21.9801 12.1968 21.9939 12.0028C22.0076 11.8088 21.919 11.1785 21.8402 10.9254C21.7595 10.6723 21.7811 10.3148 21.9013 10.2479C22.0214 10.1819 22.2706 9.78696 22.2706 9.78696C22.2804 9.76529 22.3021 9.75741 22.3326 9.75642L22.3316 9.75546ZM21.7782 20.6504C21.7299 20.6504 21.66 20.6602 21.593 20.6799C21.593 20.6799 21.5655 21.2709 21.2858 21.4501C21.0071 21.6293 20.8239 21.978 20.8239 22.1582C20.8239 22.3374 20.7648 22.5008 20.8239 22.68C20.883 22.8603 21.0209 23.009 21.1932 22.9883C21.3665 22.9686 21.5536 22.5945 21.593 22.4349C21.6334 22.2754 21.7821 21.9307 21.9013 21.8194C22.0214 21.7081 22.0451 21.3948 22.0244 21.2343C22.0076 21.0945 22.113 20.6425 21.7782 20.6493V20.6504Z" fill="#ED552A"/>
</svg>
