<svg width="31" height="31" viewBox="0 0 31 31" fill="none" xmlns="http://www.w3.org/2000/svg">
<path d="M26.5052 17.5576C26.4054 17.2999 26.1644 17.1337 25.8902 17.1337C25.8569 17.1337 25.8195 17.1379 25.7821 17.142C22.3498 17.6822 18.7596 17.9523 15.1112 17.9523C11.8285 17.9523 8.44606 17.7321 5.04699 17.2916C5.02206 17.2916 4.99297 17.2875 4.96804 17.2833L4.92648 17.2792C4.90571 17.2792 4.88078 17.2833 4.86 17.2833C3.80039 17.4288 3.75052 20.8403 3.75052 21.5342C3.75052 22.2157 3.80454 25.4943 4.80182 25.7644C4.81429 25.7685 4.82676 25.7727 4.83922 25.7768C4.84338 25.7768 4.85169 25.781 4.85584 25.781C4.86831 25.7851 4.88493 25.7851 4.8974 25.7851C4.90986 25.7851 4.91817 25.7893 4.93064 25.7893L4.98466 25.7851C4.99713 25.7851 5.00544 25.781 5.0179 25.781C5.02621 25.781 5.03037 25.781 5.03868 25.781C5.03868 25.781 5.04283 25.781 5.04283 25.7768C7.74796 25.3322 10.4323 25.058 13.046 24.9499L12.2066 27.0484C12.1277 27.2437 12.1692 27.4556 12.3147 27.6052C12.4144 27.7132 12.5515 27.7714 12.697 27.7714C12.7551 27.7714 12.8092 27.7631 12.8632 27.7465L13.6984 27.4681L14.0433 28.27C14.1264 28.4653 14.3092 28.5858 14.5212 28.59H14.5253C14.7331 28.59 14.9159 28.4736 15.0032 28.2867L15.9257 26.3046L16.8481 28.2867C16.9354 28.4736 17.1182 28.59 17.326 28.59H17.3343C17.5462 28.5858 17.7291 28.4653 17.8122 28.27L18.1571 27.4722L18.9923 27.7465C19.0463 27.7631 19.1045 27.7714 19.1585 27.7714C19.304 27.7714 19.4411 27.7132 19.5408 27.6052C19.6821 27.4556 19.7236 27.2395 19.6488 27.0484L18.8178 24.9665C21.1406 25.0871 23.4718 25.3447 25.7697 25.7394C25.8071 25.7477 25.8403 25.7519 25.8777 25.7519C26.1436 25.7519 26.3971 25.5774 26.501 25.3281C27.4983 22.7476 27.4983 20.1339 26.5052 17.5576ZM17.1349 20.5785C16.7734 20.3998 16.362 20.3001 15.9298 20.3001C15.319 20.3001 14.7497 20.4996 14.2926 20.8403C14.3092 20.0092 14.2137 19.2696 14.0017 18.5964C14.3716 18.6047 14.7414 18.6089 15.1112 18.6089C15.6805 18.6089 16.2498 18.6006 16.8149 18.5881C16.9977 19.2114 17.0808 19.8887 17.1349 20.5785ZM5.67445 25.0247C6.08582 23.936 6.11491 22.0412 6.11491 21.5384C6.11491 21.0314 6.08582 19.1034 5.66613 18.0271C8.23829 18.3388 10.798 18.5258 13.3078 18.5839C13.6111 19.4275 13.7067 20.404 13.5987 21.5716C13.5987 21.5716 13.5987 21.5716 13.5987 21.5758C13.3161 22.0121 13.1499 22.5315 13.1499 23.0883C13.1499 23.5205 13.2496 23.9277 13.4283 24.2892C13.4241 24.2892 13.4241 24.2934 13.42 24.2934C10.8935 24.3848 8.29231 24.6341 5.67029 25.0372C5.67029 25.0289 5.67445 25.0289 5.67445 25.0247ZM13.848 24.9208C14.2511 25.3779 14.8037 25.702 15.4353 25.8142L14.5295 27.7631L14.2469 27.1107C14.1638 26.9154 13.9727 26.7907 13.7649 26.7907C13.7067 26.7907 13.6527 26.799 13.5987 26.8157L12.9047 27.0442L13.7524 24.9208C13.7857 24.925 13.8189 24.9208 13.848 24.9208ZM16.4201 25.8142C17.0476 25.702 17.5961 25.3862 17.9992 24.9333C18.0366 24.9333 18.0698 24.9333 18.1072 24.9375L18.9507 27.0484L18.2568 26.8198C18.2028 26.8032 18.1488 26.7949 18.0906 26.7949C17.8787 26.7949 17.6917 26.9196 17.6044 27.1149L17.326 27.7631L16.4201 25.8142ZM18.4687 24.3017H18.4646C18.4521 24.2975 18.4438 24.2892 18.4313 24.2851C18.6142 23.9236 18.7097 23.5163 18.7097 23.0842C18.7097 22.278 18.3648 21.5509 17.8163 21.0439C17.7623 20.2128 17.7041 19.3652 17.4922 18.5673C20.3553 18.4759 23.1684 18.2183 25.8902 17.7944C26.8251 20.217 26.8251 22.6728 25.8777 25.1078C23.4427 24.684 20.9536 24.4097 18.4687 24.3017ZM4.96804 7.00303L8.15103 8.43662V13.0324C8.15103 13.1612 8.22582 13.2734 8.34633 13.3274L14.6375 16.1406C14.6791 16.1614 14.7248 16.1697 14.7705 16.1697C14.8162 16.1697 14.8619 16.1614 14.9034 16.1406L21.3982 13.236C21.5187 13.1862 21.5935 13.0657 21.5935 12.941V8.50726L24.6269 7.1817V11.4908L23.7045 12.1182C23.613 12.1806 23.559 12.2803 23.559 12.3883V14.8151C23.559 14.9937 23.7045 15.1392 23.8831 15.1392H25.8902C26.0688 15.1392 26.2143 14.9896 26.2143 14.8151V12.4257C26.2143 12.326 26.1686 12.2304 26.0896 12.1723L25.2669 11.5116V6.78279C25.2669 6.59996 25.1214 6.45868 24.9427 6.45868H24.7807L14.9949 2.02909C14.9533 2.00831 14.9076 2 14.8619 2C14.812 2 14.7663 2.00831 14.7248 2.02909L4.96804 6.40466C4.85169 6.45868 4.77274 6.57503 4.77274 6.69969C4.77689 6.83266 4.85584 6.94901 4.96804 7.00303ZM8.80341 8.72749L14.7289 11.3911C14.7705 11.4077 14.8162 11.4201 14.8661 11.4201C14.9118 11.4201 14.9533 11.4077 14.9949 11.3911L20.9453 8.79398V12.7249L14.7746 15.4841L8.80757 12.8205V8.72749H8.80341Z" fill="#ED552A"/>
</svg>
