<svg width="48" height="50" viewBox="0 0 48 50" fill="none" xmlns="http://www.w3.org/2000/svg" xmlns:xlink="http://www.w3.org/1999/xlink">
<path d="M24.49,9.358C29.088,9.358 32.19,11.305 33.959,12.931L40.871,6.318C36.626,2.451 31.102,0.078 24.49,0.078C14.912,0.078 6.639,5.465 2.612,13.305L10.531,19.331C12.517,13.545 18.014,9.358 24.49,9.358L24.49,9.358Z" fill="#F25022"/>
<path d="M48,24.61C48,22.636 47.837,21.196 47.483,19.703L24.49,19.703L24.49,28.61L37.986,28.61C37.714,30.823 36.245,34.156 32.98,36.396L40.707,42.263C45.333,38.076 48,31.916 48,24.61L48,24.61Z" fill="#4285F4"/>
<path d="M10.558,28.825C10.041,27.331 9.742,25.731 9.742,24.078C9.742,22.425 10.041,20.825 10.531,19.331L2.612,13.305C0.952,16.558 0,20.211 0,24.078C0,27.945 0.952,31.598 2.612,34.851L10.558,28.825L10.558,28.825Z" fill="#FBBC05"/>
<path d="M24.49,48.078C31.102,48.078 36.653,45.944 40.707,42.264L32.98,36.398C30.912,37.811 28.136,38.798 24.49,38.798C18.014,38.798 12.517,34.611 10.558,28.824L2.639,34.851C6.667,42.691 14.912,48.078 24.49,48.078L24.49,48.078Z" fill="#34A853"/>
</svg>
